<svg width="390" height="238" viewBox="0 0 390 238" fill="none" xmlns="http://www.w3.org/2000/svg">
<path d="M-70.2 53.85C-70.2 50.15 -69.3 47.55 -67.5 46.05C-65.7 44.55 -63.55 43.8 -61.05 43.8C-58.45 43.8 -56.25 44.55 -54.45 46.05C-52.55 47.55 -51.6 50.15 -51.6 53.85C-51.6 57.45 -52.55 60.05 -54.45 61.65C-56.25 63.25 -58.45 64.05 -61.05 64.05C-63.55 64.05 -65.7 63.25 -67.5 61.65C-69.3 60.05 -70.2 57.45 -70.2 53.85ZM-70.2 96.9C-70.2 93.2 -69.3 90.6 -67.5 89.1C-65.7 87.6 -63.55 86.85 -61.05 86.85C-58.45 86.85 -56.25 87.6 -54.45 89.1C-52.55 90.6 -51.6 93.2 -51.6 96.9C-51.6 100.5 -52.55 103.1 -54.45 104.7C-56.25 106.3 -58.45 107.1 -61.05 107.1C-63.55 107.1 -65.7 106.3 -67.5 104.7C-69.3 103.1 -70.2 100.5 -70.2 96.9ZM-70.2 10.35C-70.2 6.64999 -69.3 4.04999 -67.5 2.55C-65.7 1.05 -63.55 0.299998 -61.05 0.299998C-58.45 0.299998 -56.25 1.05 -54.45 2.55C-52.55 4.04999 -51.6 6.64999 -51.6 10.35C-51.6 13.95 -52.55 16.55 -54.45 18.15C-56.25 19.75 -58.45 20.55 -61.05 20.55C-63.55 20.55 -65.7 19.75 -67.5 18.15C-69.3 16.55 -70.2 13.95 -70.2 10.35ZM-30.0633 53.85C-30.0633 50.15 -29.1633 47.55 -27.3633 46.05C-25.5633 44.55 -23.4133 43.8 -20.9133 43.8C-18.3133 43.8 -16.1133 44.55 -14.3133 46.05C-12.4133 47.55 -11.4633 50.15 -11.4633 53.85C-11.4633 57.45 -12.4133 60.05 -14.3133 61.65C-16.1133 63.25 -18.3133 64.05 -20.9133 64.05C-23.4133 64.05 -25.5633 63.25 -27.3633 61.65C-29.1633 60.05 -30.0633 57.45 -30.0633 53.85ZM-30.0633 96.9C-30.0633 93.2 -29.1633 90.6 -27.3633 89.1C-25.5633 87.6 -23.4133 86.85 -20.9133 86.85C-18.3133 86.85 -16.1133 87.6 -14.3133 89.1C-12.4133 90.6 -11.4633 93.2 -11.4633 96.9C-11.4633 100.5 -12.4133 103.1 -14.3133 104.7C-16.1133 106.3 -18.3133 107.1 -20.9133 107.1C-23.4133 107.1 -25.5633 106.3 -27.3633 104.7C-29.1633 103.1 -30.0633 100.5 -30.0633 96.9ZM-30.0633 10.35C-30.0633 6.64999 -29.1633 4.04999 -27.3633 2.55C-25.5633 1.05 -23.4133 0.299998 -20.9133 0.299998C-18.3133 0.299998 -16.1133 1.05 -14.3133 2.55C-12.4133 4.04999 -11.4633 6.64999 -11.4633 10.35C-11.4633 13.95 -12.4133 16.55 -14.3133 18.15C-16.1133 19.75 -18.3133 20.55 -20.9133 20.55C-23.4133 20.55 -25.5633 19.75 -27.3633 18.15C-29.1633 16.55 -30.0633 13.95 -30.0633 10.35ZM10.0734 53.85C10.0734 50.15 10.9734 47.55 12.7734 46.05C14.5734 44.55 16.7234 43.8 19.2234 43.8C21.8234 43.8 24.0234 44.55 25.8234 46.05C27.7234 47.55 28.6734 50.15 28.6734 53.85C28.6734 57.45 27.7234 60.05 25.8234 61.65C24.0234 63.25 21.8234 64.05 19.2234 64.05C16.7234 64.05 14.5734 63.25 12.7734 61.65C10.9734 60.05 10.0734 57.45 10.0734 53.85ZM10.0734 96.9C10.0734 93.2 10.9734 90.6 12.7734 89.1C14.5734 87.6 16.7234 86.85 19.2234 86.85C21.8234 86.85 24.0234 87.6 25.8234 89.1C27.7234 90.6 28.6734 93.2 28.6734 96.9C28.6734 100.5 27.7234 103.1 25.8234 104.7C24.0234 106.3 21.8234 107.1 19.2234 107.1C16.7234 107.1 14.5734 106.3 12.7734 104.7C10.9734 103.1 10.0734 100.5 10.0734 96.9ZM10.0734 10.35C10.0734 6.64999 10.9734 4.04999 12.7734 2.55C14.5734 1.05 16.7234 0.299998 19.2234 0.299998C21.8234 0.299998 24.0234 1.05 25.8234 2.55C27.7234 4.04999 28.6734 6.64999 28.6734 10.35C28.6734 13.95 27.7234 16.55 25.8234 18.15C24.0234 19.75 21.8234 20.55 19.2234 20.55C16.7234 20.55 14.5734 19.75 12.7734 18.15C10.9734 16.55 10.0734 13.95 10.0734 10.35ZM50.2102 53.85C50.2102 50.15 51.1102 47.55 52.9102 46.05C54.7102 44.55 56.8602 43.8 59.3602 43.8C61.9602 43.8 64.1602 44.55 65.9602 46.05C67.8602 47.55 68.8102 50.15 68.8102 53.85C68.8102 57.45 67.8602 60.05 65.9602 61.65C64.1602 63.25 61.9602 64.05 59.3602 64.05C56.8602 64.05 54.7102 63.25 52.9102 61.65C51.1102 60.05 50.2102 57.45 50.2102 53.85ZM50.2102 96.9C50.2102 93.2 51.1102 90.6 52.9102 89.1C54.7102 87.6 56.8602 86.85 59.3602 86.85C61.9602 86.85 64.1602 87.6 65.9602 89.1C67.8602 90.6 68.8102 93.2 68.8102 96.9C68.8102 100.5 67.8602 103.1 65.9602 104.7C64.1602 106.3 61.9602 107.1 59.3602 107.1C56.8602 107.1 54.7102 106.3 52.9102 104.7C51.1102 103.1 50.2102 100.5 50.2102 96.9ZM50.2102 10.35C50.2102 6.64999 51.1102 4.04999 52.9102 2.55C54.7102 1.05 56.8602 0.299998 59.3602 0.299998C61.9602 0.299998 64.1602 1.05 65.9602 2.55C67.8602 4.04999 68.8102 6.64999 68.8102 10.35C68.8102 13.95 67.8602 16.55 65.9602 18.15C64.1602 19.75 61.9602 20.55 59.3602 20.55C56.8602 20.55 54.7102 19.75 52.9102 18.15C51.1102 16.55 50.2102 13.95 50.2102 10.35ZM90.3469 53.85C90.3469 50.15 91.2469 47.55 93.0469 46.05C94.8469 44.55 96.9969 43.8 99.4969 43.8C102.097 43.8 104.297 44.55 106.097 46.05C107.997 47.55 108.947 50.15 108.947 53.85C108.947 57.45 107.997 60.05 106.097 61.65C104.297 63.25 102.097 64.05 99.4969 64.05C96.9969 64.05 94.8469 63.25 93.0469 61.65C91.2469 60.05 90.3469 57.45 90.3469 53.85ZM90.3469 96.9C90.3469 93.2 91.2469 90.6 93.0469 89.1C94.8469 87.6 96.9969 86.85 99.4969 86.85C102.097 86.85 104.297 87.6 106.097 89.1C107.997 90.6 108.947 93.2 108.947 96.9C108.947 100.5 107.997 103.1 106.097 104.7C104.297 106.3 102.097 107.1 99.4969 107.1C96.9969 107.1 94.8469 106.3 93.0469 104.7C91.2469 103.1 90.3469 100.5 90.3469 96.9ZM90.3469 10.35C90.3469 6.64999 91.2469 4.04999 93.0469 2.55C94.8469 1.05 96.9969 0.299998 99.4969 0.299998C102.097 0.299998 104.297 1.05 106.097 2.55C107.997 4.04999 108.947 6.64999 108.947 10.35C108.947 13.95 107.997 16.55 106.097 18.15C104.297 19.75 102.097 20.55 99.4969 20.55C96.9969 20.55 94.8469 19.75 93.0469 18.15C91.2469 16.55 90.3469 13.95 90.3469 10.35ZM130.484 53.85C130.484 50.15 131.384 47.55 133.184 46.05C134.984 44.55 137.134 43.8 139.634 43.8C142.234 43.8 144.434 44.55 146.234 46.05C148.134 47.55 149.084 50.15 149.084 53.85C149.084 57.45 148.134 60.05 146.234 61.65C144.434 63.25 142.234 64.05 139.634 64.05C137.134 64.05 134.984 63.25 133.184 61.65C131.384 60.05 130.484 57.45 130.484 53.85ZM130.484 96.9C130.484 93.2 131.384 90.6 133.184 89.1C134.984 87.6 137.134 86.85 139.634 86.85C142.234 86.85 144.434 87.6 146.234 89.1C148.134 90.6 149.084 93.2 149.084 96.9C149.084 100.5 148.134 103.1 146.234 104.7C144.434 106.3 142.234 107.1 139.634 107.1C137.134 107.1 134.984 106.3 133.184 104.7C131.384 103.1 130.484 100.5 130.484 96.9ZM130.484 10.35C130.484 6.64999 131.384 4.04999 133.184 2.55C134.984 1.05 137.134 0.299998 139.634 0.299998C142.234 0.299998 144.434 1.05 146.234 2.55C148.134 4.04999 149.084 6.64999 149.084 10.35C149.084 13.95 148.134 16.55 146.234 18.15C144.434 19.75 142.234 20.55 139.634 20.55C137.134 20.55 134.984 19.75 133.184 18.15C131.384 16.55 130.484 13.95 130.484 10.35ZM170.62 53.85C170.62 50.15 171.52 47.55 173.32 46.05C175.12 44.55 177.27 43.8 179.77 43.8C182.37 43.8 184.57 44.55 186.37 46.05C188.27 47.55 189.22 50.15 189.22 53.85C189.22 57.45 188.27 60.05 186.37 61.65C184.57 63.25 182.37 64.05 179.77 64.05C177.27 64.05 175.12 63.25 173.32 61.65C171.52 60.05 170.62 57.45 170.62 53.85ZM170.62 96.9C170.62 93.2 171.52 90.6 173.32 89.1C175.12 87.6 177.27 86.85 179.77 86.85C182.37 86.85 184.57 87.6 186.37 89.1C188.27 90.6 189.22 93.2 189.22 96.9C189.22 100.5 188.27 103.1 186.37 104.7C184.57 106.3 182.37 107.1 179.77 107.1C177.27 107.1 175.12 106.3 173.32 104.7C171.52 103.1 170.62 100.5 170.62 96.9ZM170.62 10.35C170.62 6.64999 171.52 4.04999 173.32 2.55C175.12 1.05 177.27 0.299998 179.77 0.299998C182.37 0.299998 184.57 1.05 186.37 2.55C188.27 4.04999 189.22 6.64999 189.22 10.35C189.22 13.95 188.27 16.55 186.37 18.15C184.57 19.75 182.37 20.55 179.77 20.55C177.27 20.55 175.12 19.75 173.32 18.15C171.52 16.55 170.62 13.95 170.62 10.35ZM210.757 53.85C210.757 50.15 211.657 47.55 213.457 46.05C215.257 44.55 217.407 43.8 219.907 43.8C222.507 43.8 224.707 44.55 226.507 46.05C228.407 47.55 229.357 50.15 229.357 53.85C229.357 57.45 228.407 60.05 226.507 61.65C224.707 63.25 222.507 64.05 219.907 64.05C217.407 64.05 215.257 63.25 213.457 61.65C211.657 60.05 210.757 57.45 210.757 53.85ZM210.757 96.9C210.757 93.2 211.657 90.6 213.457 89.1C215.257 87.6 217.407 86.85 219.907 86.85C222.507 86.85 224.707 87.6 226.507 89.1C228.407 90.6 229.357 93.2 229.357 96.9C229.357 100.5 228.407 103.1 226.507 104.7C224.707 106.3 222.507 107.1 219.907 107.1C217.407 107.1 215.257 106.3 213.457 104.7C211.657 103.1 210.757 100.5 210.757 96.9ZM210.757 10.35C210.757 6.64999 211.657 4.04999 213.457 2.55C215.257 1.05 217.407 0.299998 219.907 0.299998C222.507 0.299998 224.707 1.05 226.507 2.55C228.407 4.04999 229.357 6.64999 229.357 10.35C229.357 13.95 228.407 16.55 226.507 18.15C224.707 19.75 222.507 20.55 219.907 20.55C217.407 20.55 215.257 19.75 213.457 18.15C211.657 16.55 210.757 13.95 210.757 10.35ZM250.894 53.85C250.894 50.15 251.794 47.55 253.594 46.05C255.394 44.55 257.544 43.8 260.044 43.8C262.644 43.8 264.844 44.55 266.644 46.05C268.544 47.55 269.494 50.15 269.494 53.85C269.494 57.45 268.544 60.05 266.644 61.65C264.844 63.25 262.644 64.05 260.044 64.05C257.544 64.05 255.394 63.25 253.594 61.65C251.794 60.05 250.894 57.45 250.894 53.85ZM250.894 96.9C250.894 93.2 251.794 90.6 253.594 89.1C255.394 87.6 257.544 86.85 260.044 86.85C262.644 86.85 264.844 87.6 266.644 89.1C268.544 90.6 269.494 93.2 269.494 96.9C269.494 100.5 268.544 103.1 266.644 104.7C264.844 106.3 262.644 107.1 260.044 107.1C257.544 107.1 255.394 106.3 253.594 104.7C251.794 103.1 250.894 100.5 250.894 96.9ZM250.894 10.35C250.894 6.64999 251.794 4.04999 253.594 2.55C255.394 1.05 257.544 0.299998 260.044 0.299998C262.644 0.299998 264.844 1.05 266.644 2.55C268.544 4.04999 269.494 6.64999 269.494 10.35C269.494 13.95 268.544 16.55 266.644 18.15C264.844 19.75 262.644 20.55 260.044 20.55C257.544 20.55 255.394 19.75 253.594 18.15C251.794 16.55 250.894 13.95 250.894 10.35ZM291.03 53.85C291.03 50.15 291.93 47.55 293.73 46.05C295.53 44.55 297.68 43.8 300.18 43.8C302.78 43.8 304.98 44.55 306.78 46.05C308.68 47.55 309.63 50.15 309.63 53.85C309.63 57.45 308.68 60.05 306.78 61.65C304.98 63.25 302.78 64.05 300.18 64.05C297.68 64.05 295.53 63.25 293.73 61.65C291.93 60.05 291.03 57.45 291.03 53.85ZM291.03 96.9C291.03 93.2 291.93 90.6 293.73 89.1C295.53 87.6 297.68 86.85 300.18 86.85C302.78 86.85 304.98 87.6 306.78 89.1C308.68 90.6 309.63 93.2 309.63 96.9C309.63 100.5 308.68 103.1 306.78 104.7C304.98 106.3 302.78 107.1 300.18 107.1C297.68 107.1 295.53 106.3 293.73 104.7C291.93 103.1 291.03 100.5 291.03 96.9ZM291.03 10.35C291.03 6.64999 291.93 4.04999 293.73 2.55C295.53 1.05 297.68 0.299998 300.18 0.299998C302.78 0.299998 304.98 1.05 306.78 2.55C308.68 4.04999 309.63 6.64999 309.63 10.35C309.63 13.95 308.68 16.55 306.78 18.15C304.98 19.75 302.78 20.55 300.18 20.55C297.68 20.55 295.53 19.75 293.73 18.15C291.93 16.55 291.03 13.95 291.03 10.35ZM331.167 53.85C331.167 50.15 332.067 47.55 333.867 46.05C335.667 44.55 337.817 43.8 340.317 43.8C342.917 43.8 345.117 44.55 346.917 46.05C348.817 47.55 349.767 50.15 349.767 53.85C349.767 57.45 348.817 60.05 346.917 61.65C345.117 63.25 342.917 64.05 340.317 64.05C337.817 64.05 335.667 63.25 333.867 61.65C332.067 60.05 331.167 57.45 331.167 53.85ZM331.167 96.9C331.167 93.2 332.067 90.6 333.867 89.1C335.667 87.6 337.817 86.85 340.317 86.85C342.917 86.85 345.117 87.6 346.917 89.1C348.817 90.6 349.767 93.2 349.767 96.9C349.767 100.5 348.817 103.1 346.917 104.7C345.117 106.3 342.917 107.1 340.317 107.1C337.817 107.1 335.667 106.3 333.867 104.7C332.067 103.1 331.167 100.5 331.167 96.9ZM331.167 10.35C331.167 6.64999 332.067 4.04999 333.867 2.55C335.667 1.05 337.817 0.299998 340.317 0.299998C342.917 0.299998 345.117 1.05 346.917 2.55C348.817 4.04999 349.767 6.64999 349.767 10.35C349.767 13.95 348.817 16.55 346.917 18.15C345.117 19.75 342.917 20.55 340.317 20.55C337.817 20.55 335.667 19.75 333.867 18.15C332.067 16.55 331.167 13.95 331.167 10.35ZM371.304 53.85C371.304 50.15 372.204 47.55 374.004 46.05C375.804 44.55 377.954 43.8 380.454 43.8C383.054 43.8 385.254 44.55 387.054 46.05C388.954 47.55 389.904 50.15 389.904 53.85C389.904 57.45 388.954 60.05 387.054 61.65C385.254 63.25 383.054 64.05 380.454 64.05C377.954 64.05 375.804 63.25 374.004 61.65C372.204 60.05 371.304 57.45 371.304 53.85ZM371.304 96.9C371.304 93.2 372.204 90.6 374.004 89.1C375.804 87.6 377.954 86.85 380.454 86.85C383.054 86.85 385.254 87.6 387.054 89.1C388.954 90.6 389.904 93.2 389.904 96.9C389.904 100.5 388.954 103.1 387.054 104.7C385.254 106.3 383.054 107.1 380.454 107.1C377.954 107.1 375.804 106.3 374.004 104.7C372.204 103.1 371.304 100.5 371.304 96.9ZM371.304 10.35C371.304 6.64999 372.204 4.04999 374.004 2.55C375.804 1.05 377.954 0.299998 380.454 0.299998C383.054 0.299998 385.254 1.05 387.054 2.55C388.954 4.04999 389.904 6.64999 389.904 10.35C389.904 13.95 388.954 16.55 387.054 18.15C385.254 19.75 383.054 20.55 380.454 20.55C377.954 20.55 375.804 19.75 374.004 18.15C372.204 16.55 371.304 13.95 371.304 10.35ZM-70.2 183.85C-70.2 180.15 -69.3 177.55 -67.5 176.05C-65.7 174.55 -63.55 173.8 -61.05 173.8C-58.45 173.8 -56.25 174.55 -54.45 176.05C-52.55 177.55 -51.6 180.15 -51.6 183.85C-51.6 187.45 -52.55 190.05 -54.45 191.65C-56.25 193.25 -58.45 194.05 -61.05 194.05C-63.55 194.05 -65.7 193.25 -67.5 191.65C-69.3 190.05 -70.2 187.45 -70.2 183.85ZM-70.2 226.9C-70.2 223.2 -69.3 220.6 -67.5 219.1C-65.7 217.6 -63.55 216.85 -61.05 216.85C-58.45 216.85 -56.25 217.6 -54.45 219.1C-52.55 220.6 -51.6 223.2 -51.6 226.9C-51.6 230.5 -52.55 233.1 -54.45 234.7C-56.25 236.3 -58.45 237.1 -61.05 237.1C-63.55 237.1 -65.7 236.3 -67.5 234.7C-69.3 233.1 -70.2 230.5 -70.2 226.9ZM-70.2 140.35C-70.2 136.65 -69.3 134.05 -67.5 132.55C-65.7 131.05 -63.55 130.3 -61.05 130.3C-58.45 130.3 -56.25 131.05 -54.45 132.55C-52.55 134.05 -51.6 136.65 -51.6 140.35C-51.6 143.95 -52.55 146.55 -54.45 148.15C-56.25 149.75 -58.45 150.55 -61.05 150.55C-63.55 150.55 -65.7 149.75 -67.5 148.15C-69.3 146.55 -70.2 143.95 -70.2 140.35ZM-30.0633 183.85C-30.0633 180.15 -29.1633 177.55 -27.3633 176.05C-25.5633 174.55 -23.4133 173.8 -20.9133 173.8C-18.3133 173.8 -16.1133 174.55 -14.3133 176.05C-12.4133 177.55 -11.4633 180.15 -11.4633 183.85C-11.4633 187.45 -12.4133 190.05 -14.3133 191.65C-16.1133 193.25 -18.3133 194.05 -20.9133 194.05C-23.4133 194.05 -25.5633 193.25 -27.3633 191.65C-29.1633 190.05 -30.0633 187.45 -30.0633 183.85ZM-30.0633 226.9C-30.0633 223.2 -29.1633 220.6 -27.3633 219.1C-25.5633 217.6 -23.4133 216.85 -20.9133 216.85C-18.3133 216.85 -16.1133 217.6 -14.3133 219.1C-12.4133 220.6 -11.4633 223.2 -11.4633 226.9C-11.4633 230.5 -12.4133 233.1 -14.3133 234.7C-16.1133 236.3 -18.3133 237.1 -20.9133 237.1C-23.4133 237.1 -25.5633 236.3 -27.3633 234.7C-29.1633 233.1 -30.0633 230.5 -30.0633 226.9ZM-30.0633 140.35C-30.0633 136.65 -29.1633 134.05 -27.3633 132.55C-25.5633 131.05 -23.4133 130.3 -20.9133 130.3C-18.3133 130.3 -16.1133 131.05 -14.3133 132.55C-12.4133 134.05 -11.4633 136.65 -11.4633 140.35C-11.4633 143.95 -12.4133 146.55 -14.3133 148.15C-16.1133 149.75 -18.3133 150.55 -20.9133 150.55C-23.4133 150.55 -25.5633 149.75 -27.3633 148.15C-29.1633 146.55 -30.0633 143.95 -30.0633 140.35ZM10.0734 183.85C10.0734 180.15 10.9734 177.55 12.7734 176.05C14.5734 174.55 16.7234 173.8 19.2234 173.8C21.8234 173.8 24.0234 174.55 25.8234 176.05C27.7234 177.55 28.6734 180.15 28.6734 183.85C28.6734 187.45 27.7234 190.05 25.8234 191.65C24.0234 193.25 21.8234 194.05 19.2234 194.05C16.7234 194.05 14.5734 193.25 12.7734 191.65C10.9734 190.05 10.0734 187.45 10.0734 183.85ZM10.0734 226.9C10.0734 223.2 10.9734 220.6 12.7734 219.1C14.5734 217.6 16.7234 216.85 19.2234 216.85C21.8234 216.85 24.0234 217.6 25.8234 219.1C27.7234 220.6 28.6734 223.2 28.6734 226.9C28.6734 230.5 27.7234 233.1 25.8234 234.7C24.0234 236.3 21.8234 237.1 19.2234 237.1C16.7234 237.1 14.5734 236.3 12.7734 234.7C10.9734 233.1 10.0734 230.5 10.0734 226.9ZM10.0734 140.35C10.0734 136.65 10.9734 134.05 12.7734 132.55C14.5734 131.05 16.7234 130.3 19.2234 130.3C21.8234 130.3 24.0234 131.05 25.8234 132.55C27.7234 134.05 28.6734 136.65 28.6734 140.35C28.6734 143.95 27.7234 146.55 25.8234 148.15C24.0234 149.75 21.8234 150.55 19.2234 150.55C16.7234 150.55 14.5734 149.75 12.7734 148.15C10.9734 146.55 10.0734 143.95 10.0734 140.35ZM50.2102 183.85C50.2102 180.15 51.1102 177.55 52.9102 176.05C54.7102 174.55 56.8602 173.8 59.3602 173.8C61.9602 173.8 64.1602 174.55 65.9602 176.05C67.8602 177.55 68.8102 180.15 68.8102 183.85C68.8102 187.45 67.8602 190.05 65.9602 191.65C64.1602 193.25 61.9602 194.05 59.3602 194.05C56.8602 194.05 54.7102 193.25 52.9102 191.65C51.1102 190.05 50.2102 187.45 50.2102 183.85ZM50.2102 226.9C50.2102 223.2 51.1102 220.6 52.9102 219.1C54.7102 217.6 56.8602 216.85 59.3602 216.85C61.9602 216.85 64.1602 217.6 65.9602 219.1C67.8602 220.6 68.8102 223.2 68.8102 226.9C68.8102 230.5 67.8602 233.1 65.9602 234.7C64.1602 236.3 61.9602 237.1 59.3602 237.1C56.8602 237.1 54.7102 236.3 52.9102 234.7C51.1102 233.1 50.2102 230.5 50.2102 226.9ZM50.2102 140.35C50.2102 136.65 51.1102 134.05 52.9102 132.55C54.7102 131.05 56.8602 130.3 59.3602 130.3C61.9602 130.3 64.1602 131.05 65.9602 132.55C67.8602 134.05 68.8102 136.65 68.8102 140.35C68.8102 143.95 67.8602 146.55 65.9602 148.15C64.1602 149.75 61.9602 150.55 59.3602 150.55C56.8602 150.55 54.7102 149.75 52.9102 148.15C51.1102 146.55 50.2102 143.95 50.2102 140.35ZM90.3469 183.85C90.3469 180.15 91.2469 177.55 93.0469 176.05C94.8469 174.55 96.9969 173.8 99.4969 173.8C102.097 173.8 104.297 174.55 106.097 176.05C107.997 177.55 108.947 180.15 108.947 183.85C108.947 187.45 107.997 190.05 106.097 191.65C104.297 193.25 102.097 194.05 99.4969 194.05C96.9969 194.05 94.8469 193.25 93.0469 191.65C91.2469 190.05 90.3469 187.45 90.3469 183.85ZM90.3469 226.9C90.3469 223.2 91.2469 220.6 93.0469 219.1C94.8469 217.6 96.9969 216.85 99.4969 216.85C102.097 216.85 104.297 217.6 106.097 219.1C107.997 220.6 108.947 223.2 108.947 226.9C108.947 230.5 107.997 233.1 106.097 234.7C104.297 236.3 102.097 237.1 99.4969 237.1C96.9969 237.1 94.8469 236.3 93.0469 234.7C91.2469 233.1 90.3469 230.5 90.3469 226.9ZM90.3469 140.35C90.3469 136.65 91.2469 134.05 93.0469 132.55C94.8469 131.05 96.9969 130.3 99.4969 130.3C102.097 130.3 104.297 131.05 106.097 132.55C107.997 134.05 108.947 136.65 108.947 140.35C108.947 143.95 107.997 146.55 106.097 148.15C104.297 149.75 102.097 150.55 99.4969 150.55C96.9969 150.55 94.8469 149.75 93.0469 148.15C91.2469 146.55 90.3469 143.95 90.3469 140.35ZM130.484 183.85C130.484 180.15 131.384 177.55 133.184 176.05C134.984 174.55 137.134 173.8 139.634 173.8C142.234 173.8 144.434 174.55 146.234 176.05C148.134 177.55 149.084 180.15 149.084 183.85C149.084 187.45 148.134 190.05 146.234 191.65C144.434 193.25 142.234 194.05 139.634 194.05C137.134 194.05 134.984 193.25 133.184 191.65C131.384 190.05 130.484 187.45 130.484 183.85ZM130.484 226.9C130.484 223.2 131.384 220.6 133.184 219.1C134.984 217.6 137.134 216.85 139.634 216.85C142.234 216.85 144.434 217.6 146.234 219.1C148.134 220.6 149.084 223.2 149.084 226.9C149.084 230.5 148.134 233.1 146.234 234.7C144.434 236.3 142.234 237.1 139.634 237.1C137.134 237.1 134.984 236.3 133.184 234.7C131.384 233.1 130.484 230.5 130.484 226.9ZM130.484 140.35C130.484 136.65 131.384 134.05 133.184 132.55C134.984 131.05 137.134 130.3 139.634 130.3C142.234 130.3 144.434 131.05 146.234 132.55C148.134 134.05 149.084 136.65 149.084 140.35C149.084 143.95 148.134 146.55 146.234 148.15C144.434 149.75 142.234 150.55 139.634 150.55C137.134 150.55 134.984 149.75 133.184 148.15C131.384 146.55 130.484 143.95 130.484 140.35ZM170.62 183.85C170.62 180.15 171.52 177.55 173.32 176.05C175.12 174.55 177.27 173.8 179.77 173.8C182.37 173.8 184.57 174.55 186.37 176.05C188.27 177.55 189.22 180.15 189.22 183.85C189.22 187.45 188.27 190.05 186.37 191.65C184.57 193.25 182.37 194.05 179.77 194.05C177.27 194.05 175.12 193.25 173.32 191.65C171.52 190.05 170.62 187.45 170.62 183.85ZM170.62 226.9C170.62 223.2 171.52 220.6 173.32 219.1C175.12 217.6 177.27 216.85 179.77 216.85C182.37 216.85 184.57 217.6 186.37 219.1C188.27 220.6 189.22 223.2 189.22 226.9C189.22 230.5 188.27 233.1 186.37 234.7C184.57 236.3 182.37 237.1 179.77 237.1C177.27 237.1 175.12 236.3 173.32 234.7C171.52 233.1 170.62 230.5 170.62 226.9ZM170.62 140.35C170.62 136.65 171.52 134.05 173.32 132.55C175.12 131.05 177.27 130.3 179.77 130.3C182.37 130.3 184.57 131.05 186.37 132.55C188.27 134.05 189.22 136.65 189.22 140.35C189.22 143.95 188.27 146.55 186.37 148.15C184.57 149.75 182.37 150.55 179.77 150.55C177.27 150.55 175.12 149.75 173.32 148.15C171.52 146.55 170.62 143.95 170.62 140.35ZM210.757 183.85C210.757 180.15 211.657 177.55 213.457 176.05C215.257 174.55 217.407 173.8 219.907 173.8C222.507 173.8 224.707 174.55 226.507 176.05C228.407 177.55 229.357 180.15 229.357 183.85C229.357 187.45 228.407 190.05 226.507 191.65C224.707 193.25 222.507 194.05 219.907 194.05C217.407 194.05 215.257 193.25 213.457 191.65C211.657 190.05 210.757 187.45 210.757 183.85ZM210.757 226.9C210.757 223.2 211.657 220.6 213.457 219.1C215.257 217.6 217.407 216.85 219.907 216.85C222.507 216.85 224.707 217.6 226.507 219.1C228.407 220.6 229.357 223.2 229.357 226.9C229.357 230.5 228.407 233.1 226.507 234.7C224.707 236.3 222.507 237.1 219.907 237.1C217.407 237.1 215.257 236.3 213.457 234.7C211.657 233.1 210.757 230.5 210.757 226.9ZM210.757 140.35C210.757 136.65 211.657 134.05 213.457 132.55C215.257 131.05 217.407 130.3 219.907 130.3C222.507 130.3 224.707 131.05 226.507 132.55C228.407 134.05 229.357 136.65 229.357 140.35C229.357 143.95 228.407 146.55 226.507 148.15C224.707 149.75 222.507 150.55 219.907 150.55C217.407 150.55 215.257 149.75 213.457 148.15C211.657 146.55 210.757 143.95 210.757 140.35ZM250.894 183.85C250.894 180.15 251.794 177.55 253.594 176.05C255.394 174.55 257.544 173.8 260.044 173.8C262.644 173.8 264.844 174.55 266.644 176.05C268.544 177.55 269.494 180.15 269.494 183.85C269.494 187.45 268.544 190.05 266.644 191.65C264.844 193.25 262.644 194.05 260.044 194.05C257.544 194.05 255.394 193.25 253.594 191.65C251.794 190.05 250.894 187.45 250.894 183.85ZM250.894 226.9C250.894 223.2 251.794 220.6 253.594 219.1C255.394 217.6 257.544 216.85 260.044 216.85C262.644 216.85 264.844 217.6 266.644 219.1C268.544 220.6 269.494 223.2 269.494 226.9C269.494 230.5 268.544 233.1 266.644 234.7C264.844 236.3 262.644 237.1 260.044 237.1C257.544 237.1 255.394 236.3 253.594 234.7C251.794 233.1 250.894 230.5 250.894 226.9ZM250.894 140.35C250.894 136.65 251.794 134.05 253.594 132.55C255.394 131.05 257.544 130.3 260.044 130.3C262.644 130.3 264.844 131.05 266.644 132.55C268.544 134.05 269.494 136.65 269.494 140.35C269.494 143.95 268.544 146.55 266.644 148.15C264.844 149.75 262.644 150.55 260.044 150.55C257.544 150.55 255.394 149.75 253.594 148.15C251.794 146.55 250.894 143.95 250.894 140.35ZM291.03 183.85C291.03 180.15 291.93 177.55 293.73 176.05C295.53 174.55 297.68 173.8 300.18 173.8C302.78 173.8 304.98 174.55 306.78 176.05C308.68 177.55 309.63 180.15 309.63 183.85C309.63 187.45 308.68 190.05 306.78 191.65C304.98 193.25 302.78 194.05 300.18 194.05C297.68 194.05 295.53 193.25 293.73 191.65C291.93 190.05 291.03 187.45 291.03 183.85ZM291.03 226.9C291.03 223.2 291.93 220.6 293.73 219.1C295.53 217.6 297.68 216.85 300.18 216.85C302.78 216.85 304.98 217.6 306.78 219.1C308.68 220.6 309.63 223.2 309.63 226.9C309.63 230.5 308.68 233.1 306.78 234.7C304.98 236.3 302.78 237.1 300.18 237.1C297.68 237.1 295.53 236.3 293.73 234.7C291.93 233.1 291.03 230.5 291.03 226.9ZM291.03 140.35C291.03 136.65 291.93 134.05 293.73 132.55C295.53 131.05 297.68 130.3 300.18 130.3C302.78 130.3 304.98 131.05 306.78 132.55C308.68 134.05 309.63 136.65 309.63 140.35C309.63 143.95 308.68 146.55 306.78 148.15C304.98 149.75 302.78 150.55 300.18 150.55C297.68 150.55 295.53 149.75 293.73 148.15C291.93 146.55 291.03 143.95 291.03 140.35ZM331.167 183.85C331.167 180.15 332.067 177.55 333.867 176.05C335.667 174.55 337.817 173.8 340.317 173.8C342.917 173.8 345.117 174.55 346.917 176.05C348.817 177.55 349.767 180.15 349.767 183.85C349.767 187.45 348.817 190.05 346.917 191.65C345.117 193.25 342.917 194.05 340.317 194.05C337.817 194.05 335.667 193.25 333.867 191.65C332.067 190.05 331.167 187.45 331.167 183.85ZM331.167 226.9C331.167 223.2 332.067 220.6 333.867 219.1C335.667 217.6 337.817 216.85 340.317 216.85C342.917 216.85 345.117 217.6 346.917 219.1C348.817 220.6 349.767 223.2 349.767 226.9C349.767 230.5 348.817 233.1 346.917 234.7C345.117 236.3 342.917 237.1 340.317 237.1C337.817 237.1 335.667 236.3 333.867 234.7C332.067 233.1 331.167 230.5 331.167 226.9ZM331.167 140.35C331.167 136.65 332.067 134.05 333.867 132.55C335.667 131.05 337.817 130.3 340.317 130.3C342.917 130.3 345.117 131.05 346.917 132.55C348.817 134.05 349.767 136.65 349.767 140.35C349.767 143.95 348.817 146.55 346.917 148.15C345.117 149.75 342.917 150.55 340.317 150.55C337.817 150.55 335.667 149.75 333.867 148.15C332.067 146.55 331.167 143.95 331.167 140.35ZM371.304 183.85C371.304 180.15 372.204 177.55 374.004 176.05C375.804 174.55 377.954 173.8 380.454 173.8C383.054 173.8 385.254 174.55 387.054 176.05C388.954 177.55 389.904 180.15 389.904 183.85C389.904 187.45 388.954 190.05 387.054 191.65C385.254 193.25 383.054 194.05 380.454 194.05C377.954 194.05 375.804 193.25 374.004 191.65C372.204 190.05 371.304 187.45 371.304 183.85ZM371.304 226.9C371.304 223.2 372.204 220.6 374.004 219.1C375.804 217.6 377.954 216.85 380.454 216.85C383.054 216.85 385.254 217.6 387.054 219.1C388.954 220.6 389.904 223.2 389.904 226.9C389.904 230.5 388.954 233.1 387.054 234.7C385.254 236.3 383.054 237.1 380.454 237.1C377.954 237.1 375.804 236.3 374.004 234.7C372.204 233.1 371.304 230.5 371.304 226.9ZM371.304 140.35C371.304 136.65 372.204 134.05 374.004 132.55C375.804 131.05 377.954 130.3 380.454 130.3C383.054 130.3 385.254 131.05 387.054 132.55C388.954 134.05 389.904 136.65 389.904 140.35C389.904 143.95 388.954 146.55 387.054 148.15C385.254 149.75 383.054 150.55 380.454 150.55C377.954 150.55 375.804 149.75 374.004 148.15C372.204 146.55 371.304 143.95 371.304 140.35Z" fill="#CF1259"/>
</svg>
