<svg width="259" height="209" viewBox="0 0 259 209" fill="none" xmlns="http://www.w3.org/2000/svg">
<path d="M12.1211 6.5C12.1211 8.50521 11.5352 10.0677 10.3633 11.1875C9.20443 12.3073 7.81771 12.8672 6.20312 12.8672C4.60156 12.8672 3.20833 12.3138 2.02344 11.207C0.851562 10.0872 0.265625 8.53125 0.265625 6.53906C0.265625 4.52083 0.851562 2.94531 2.02344 1.8125C3.20833 0.679688 4.60156 0.113281 6.20312 0.113281C7.80469 0.113281 9.19141 0.679688 10.3633 1.8125C11.5352 2.93229 12.1211 4.49479 12.1211 6.5ZM38.5273 6.5C38.5273 8.50521 37.9414 10.0677 36.7695 11.1875C35.6107 12.3073 34.224 12.8672 32.6094 12.8672C31.0078 12.8672 29.6146 12.3138 28.4297 11.207C27.2578 10.0872 26.6719 8.53125 26.6719 6.53906C26.6719 4.52083 27.2578 2.94531 28.4297 1.8125C29.6146 0.679688 31.0078 0.113281 32.6094 0.113281C34.2109 0.113281 35.5977 0.679688 36.7695 1.8125C37.9414 2.93229 38.5273 4.49479 38.5273 6.5ZM64.9336 6.5C64.9336 8.50521 64.3477 10.0677 63.1758 11.1875C62.0169 12.3073 60.6302 12.8672 59.0156 12.8672C57.4141 12.8672 56.0208 12.3138 54.8359 11.207C53.6641 10.0872 53.0781 8.53125 53.0781 6.53906C53.0781 4.52083 53.6641 2.94531 54.8359 1.8125C56.0208 0.679688 57.4141 0.113281 59.0156 0.113281C60.6172 0.113281 62.0039 0.679688 63.1758 1.8125C64.3477 2.93229 64.9336 4.49479 64.9336 6.5ZM91.3398 6.5C91.3398 8.50521 90.7539 10.0677 89.582 11.1875C88.4232 12.3073 87.0365 12.8672 85.4219 12.8672C83.8203 12.8672 82.4271 12.3138 81.2422 11.207C80.0703 10.0872 79.4844 8.53125 79.4844 6.53906C79.4844 4.52083 80.0703 2.94531 81.2422 1.8125C82.4271 0.679688 83.8203 0.113281 85.4219 0.113281C87.0234 0.113281 88.4102 0.679688 89.582 1.8125C90.7539 2.93229 91.3398 4.49479 91.3398 6.5ZM117.746 6.5C117.746 8.50521 117.16 10.0677 115.988 11.1875C114.829 12.3073 113.443 12.8672 111.828 12.8672C110.227 12.8672 108.833 12.3138 107.648 11.207C106.477 10.0872 105.891 8.53125 105.891 6.53906C105.891 4.52083 106.477 2.94531 107.648 1.8125C108.833 0.679688 110.227 0.113281 111.828 0.113281C113.43 0.113281 114.816 0.679688 115.988 1.8125C117.16 2.93229 117.746 4.49479 117.746 6.5ZM144.152 6.5C144.152 8.50521 143.566 10.0677 142.395 11.1875C141.236 12.3073 139.849 12.8672 138.234 12.8672C136.633 12.8672 135.24 12.3138 134.055 11.207C132.883 10.0872 132.297 8.53125 132.297 6.53906C132.297 4.52083 132.883 2.94531 134.055 1.8125C135.24 0.679688 136.633 0.113281 138.234 0.113281C139.836 0.113281 141.223 0.679688 142.395 1.8125C143.566 2.93229 144.152 4.49479 144.152 6.5ZM170.559 6.5C170.559 8.50521 169.973 10.0677 168.801 11.1875C167.642 12.3073 166.255 12.8672 164.641 12.8672C163.039 12.8672 161.646 12.3138 160.461 11.207C159.289 10.0872 158.703 8.53125 158.703 6.53906C158.703 4.52083 159.289 2.94531 160.461 1.8125C161.646 0.679688 163.039 0.113281 164.641 0.113281C166.242 0.113281 167.629 0.679688 168.801 1.8125C169.973 2.93229 170.559 4.49479 170.559 6.5ZM196.965 6.5C196.965 8.50521 196.379 10.0677 195.207 11.1875C194.048 12.3073 192.661 12.8672 191.047 12.8672C189.445 12.8672 188.052 12.3138 186.867 11.207C185.695 10.0872 185.109 8.53125 185.109 6.53906C185.109 4.52083 185.695 2.94531 186.867 1.8125C188.052 0.679688 189.445 0.113281 191.047 0.113281C192.648 0.113281 194.035 0.679688 195.207 1.8125C196.379 2.93229 196.965 4.49479 196.965 6.5ZM223.371 6.5C223.371 8.50521 222.785 10.0677 221.613 11.1875C220.454 12.3073 219.068 12.8672 217.453 12.8672C215.852 12.8672 214.458 12.3138 213.273 11.207C212.102 10.0872 211.516 8.53125 211.516 6.53906C211.516 4.52083 212.102 2.94531 213.273 1.8125C214.458 0.679688 215.852 0.113281 217.453 0.113281C219.055 0.113281 220.441 0.679688 221.613 1.8125C222.785 2.93229 223.371 4.49479 223.371 6.5ZM249.777 6.5C249.777 8.50521 249.191 10.0677 248.02 11.1875C246.861 12.3073 245.474 12.8672 243.859 12.8672C242.258 12.8672 240.865 12.3138 239.68 11.207C238.508 10.0872 237.922 8.53125 237.922 6.53906C237.922 4.52083 238.508 2.94531 239.68 1.8125C240.865 0.679688 242.258 0.113281 243.859 0.113281C245.461 0.113281 246.848 0.679688 248.02 1.8125C249.191 2.93229 249.777 4.49479 249.777 6.5ZM276.184 6.5C276.184 8.50521 275.598 10.0677 274.426 11.1875C273.267 12.3073 271.88 12.8672 270.266 12.8672C268.664 12.8672 267.271 12.3138 266.086 11.207C264.914 10.0872 264.328 8.53125 264.328 6.53906C264.328 4.52083 264.914 2.94531 266.086 1.8125C267.271 0.679688 268.664 0.113281 270.266 0.113281C271.867 0.113281 273.254 0.679688 274.426 1.8125C275.598 2.93229 276.184 4.49479 276.184 6.5ZM302.59 6.5C302.59 8.50521 302.004 10.0677 300.832 11.1875C299.673 12.3073 298.286 12.8672 296.672 12.8672C295.07 12.8672 293.677 12.3138 292.492 11.207C291.32 10.0872 290.734 8.53125 290.734 6.53906C290.734 4.52083 291.32 2.94531 292.492 1.8125C293.677 0.679688 295.07 0.113281 296.672 0.113281C298.273 0.113281 299.66 0.679688 300.832 1.8125C302.004 2.93229 302.59 4.49479 302.59 6.5ZM328.996 6.5C328.996 8.50521 328.41 10.0677 327.238 11.1875C326.079 12.3073 324.693 12.8672 323.078 12.8672C321.477 12.8672 320.083 12.3138 318.898 11.207C317.727 10.0872 317.141 8.53125 317.141 6.53906C317.141 4.52083 317.727 2.94531 318.898 1.8125C320.083 0.679688 321.477 0.113281 323.078 0.113281C324.68 0.113281 326.066 0.679688 327.238 1.8125C328.41 2.93229 328.996 4.49479 328.996 6.5ZM355.402 6.5C355.402 8.50521 354.816 10.0677 353.645 11.1875C352.486 12.3073 351.099 12.8672 349.484 12.8672C347.883 12.8672 346.49 12.3138 345.305 11.207C344.133 10.0872 343.547 8.53125 343.547 6.53906C343.547 4.52083 344.133 2.94531 345.305 1.8125C346.49 0.679688 347.883 0.113281 349.484 0.113281C351.086 0.113281 352.473 0.679688 353.645 1.8125C354.816 2.93229 355.402 4.49479 355.402 6.5ZM381.809 6.5C381.809 8.50521 381.223 10.0677 380.051 11.1875C378.892 12.3073 377.505 12.8672 375.891 12.8672C374.289 12.8672 372.896 12.3138 371.711 11.207C370.539 10.0872 369.953 8.53125 369.953 6.53906C369.953 4.52083 370.539 2.94531 371.711 1.8125C372.896 0.679688 374.289 0.113281 375.891 0.113281C377.492 0.113281 378.879 0.679688 380.051 1.8125C381.223 2.93229 381.809 4.49479 381.809 6.5ZM408.215 6.5C408.215 8.50521 407.629 10.0677 406.457 11.1875C405.298 12.3073 403.911 12.8672 402.297 12.8672C400.695 12.8672 399.302 12.3138 398.117 11.207C396.945 10.0872 396.359 8.53125 396.359 6.53906C396.359 4.52083 396.945 2.94531 398.117 1.8125C399.302 0.679688 400.695 0.113281 402.297 0.113281C403.898 0.113281 405.285 0.679688 406.457 1.8125C407.629 2.93229 408.215 4.49479 408.215 6.5ZM434.621 6.5C434.621 8.50521 434.035 10.0677 432.863 11.1875C431.704 12.3073 430.318 12.8672 428.703 12.8672C427.102 12.8672 425.708 12.3138 424.523 11.207C423.352 10.0872 422.766 8.53125 422.766 6.53906C422.766 4.52083 423.352 2.94531 424.523 1.8125C425.708 0.679688 427.102 0.113281 428.703 0.113281C430.305 0.113281 431.691 0.679688 432.863 1.8125C434.035 2.93229 434.621 4.49479 434.621 6.5ZM461.027 6.5C461.027 8.50521 460.441 10.0677 459.27 11.1875C458.111 12.3073 456.724 12.8672 455.109 12.8672C453.508 12.8672 452.115 12.3138 450.93 11.207C449.758 10.0872 449.172 8.53125 449.172 6.53906C449.172 4.52083 449.758 2.94531 450.93 1.8125C452.115 0.679688 453.508 0.113281 455.109 0.113281C456.711 0.113281 458.098 0.679688 459.27 1.8125C460.441 2.93229 461.027 4.49479 461.027 6.5ZM12.1211 55.5C12.1211 57.5052 11.5352 59.0677 10.3633 60.1875C9.20443 61.3073 7.81771 61.8672 6.20312 61.8672C4.60156 61.8672 3.20833 61.3138 2.02344 60.207C0.851562 59.0872 0.265625 57.5312 0.265625 55.5391C0.265625 53.5208 0.851562 51.9453 2.02344 50.8125C3.20833 49.6797 4.60156 49.1133 6.20312 49.1133C7.80469 49.1133 9.19141 49.6797 10.3633 50.8125C11.5352 51.9323 12.1211 53.4948 12.1211 55.5ZM38.5273 55.5C38.5273 57.5052 37.9414 59.0677 36.7695 60.1875C35.6107 61.3073 34.224 61.8672 32.6094 61.8672C31.0078 61.8672 29.6146 61.3138 28.4297 60.207C27.2578 59.0872 26.6719 57.5312 26.6719 55.5391C26.6719 53.5208 27.2578 51.9453 28.4297 50.8125C29.6146 49.6797 31.0078 49.1133 32.6094 49.1133C34.2109 49.1133 35.5977 49.6797 36.7695 50.8125C37.9414 51.9323 38.5273 53.4948 38.5273 55.5ZM64.9336 55.5C64.9336 57.5052 64.3477 59.0677 63.1758 60.1875C62.0169 61.3073 60.6302 61.8672 59.0156 61.8672C57.4141 61.8672 56.0208 61.3138 54.8359 60.207C53.6641 59.0872 53.0781 57.5312 53.0781 55.5391C53.0781 53.5208 53.6641 51.9453 54.8359 50.8125C56.0208 49.6797 57.4141 49.1133 59.0156 49.1133C60.6172 49.1133 62.0039 49.6797 63.1758 50.8125C64.3477 51.9323 64.9336 53.4948 64.9336 55.5ZM91.3398 55.5C91.3398 57.5052 90.7539 59.0677 89.582 60.1875C88.4232 61.3073 87.0365 61.8672 85.4219 61.8672C83.8203 61.8672 82.4271 61.3138 81.2422 60.207C80.0703 59.0872 79.4844 57.5312 79.4844 55.5391C79.4844 53.5208 80.0703 51.9453 81.2422 50.8125C82.4271 49.6797 83.8203 49.1133 85.4219 49.1133C87.0234 49.1133 88.4102 49.6797 89.582 50.8125C90.7539 51.9323 91.3398 53.4948 91.3398 55.5ZM117.746 55.5C117.746 57.5052 117.16 59.0677 115.988 60.1875C114.829 61.3073 113.443 61.8672 111.828 61.8672C110.227 61.8672 108.833 61.3138 107.648 60.207C106.477 59.0872 105.891 57.5312 105.891 55.5391C105.891 53.5208 106.477 51.9453 107.648 50.8125C108.833 49.6797 110.227 49.1133 111.828 49.1133C113.43 49.1133 114.816 49.6797 115.988 50.8125C117.16 51.9323 117.746 53.4948 117.746 55.5ZM144.152 55.5C144.152 57.5052 143.566 59.0677 142.395 60.1875C141.236 61.3073 139.849 61.8672 138.234 61.8672C136.633 61.8672 135.24 61.3138 134.055 60.207C132.883 59.0872 132.297 57.5312 132.297 55.5391C132.297 53.5208 132.883 51.9453 134.055 50.8125C135.24 49.6797 136.633 49.1133 138.234 49.1133C139.836 49.1133 141.223 49.6797 142.395 50.8125C143.566 51.9323 144.152 53.4948 144.152 55.5ZM170.559 55.5C170.559 57.5052 169.973 59.0677 168.801 60.1875C167.642 61.3073 166.255 61.8672 164.641 61.8672C163.039 61.8672 161.646 61.3138 160.461 60.207C159.289 59.0872 158.703 57.5312 158.703 55.5391C158.703 53.5208 159.289 51.9453 160.461 50.8125C161.646 49.6797 163.039 49.1133 164.641 49.1133C166.242 49.1133 167.629 49.6797 168.801 50.8125C169.973 51.9323 170.559 53.4948 170.559 55.5ZM196.965 55.5C196.965 57.5052 196.379 59.0677 195.207 60.1875C194.048 61.3073 192.661 61.8672 191.047 61.8672C189.445 61.8672 188.052 61.3138 186.867 60.207C185.695 59.0872 185.109 57.5312 185.109 55.5391C185.109 53.5208 185.695 51.9453 186.867 50.8125C188.052 49.6797 189.445 49.1133 191.047 49.1133C192.648 49.1133 194.035 49.6797 195.207 50.8125C196.379 51.9323 196.965 53.4948 196.965 55.5ZM223.371 55.5C223.371 57.5052 222.785 59.0677 221.613 60.1875C220.454 61.3073 219.068 61.8672 217.453 61.8672C215.852 61.8672 214.458 61.3138 213.273 60.207C212.102 59.0872 211.516 57.5312 211.516 55.5391C211.516 53.5208 212.102 51.9453 213.273 50.8125C214.458 49.6797 215.852 49.1133 217.453 49.1133C219.055 49.1133 220.441 49.6797 221.613 50.8125C222.785 51.9323 223.371 53.4948 223.371 55.5ZM249.777 55.5C249.777 57.5052 249.191 59.0677 248.02 60.1875C246.861 61.3073 245.474 61.8672 243.859 61.8672C242.258 61.8672 240.865 61.3138 239.68 60.207C238.508 59.0872 237.922 57.5312 237.922 55.5391C237.922 53.5208 238.508 51.9453 239.68 50.8125C240.865 49.6797 242.258 49.1133 243.859 49.1133C245.461 49.1133 246.848 49.6797 248.02 50.8125C249.191 51.9323 249.777 53.4948 249.777 55.5ZM276.184 55.5C276.184 57.5052 275.598 59.0677 274.426 60.1875C273.267 61.3073 271.88 61.8672 270.266 61.8672C268.664 61.8672 267.271 61.3138 266.086 60.207C264.914 59.0872 264.328 57.5312 264.328 55.5391C264.328 53.5208 264.914 51.9453 266.086 50.8125C267.271 49.6797 268.664 49.1133 270.266 49.1133C271.867 49.1133 273.254 49.6797 274.426 50.8125C275.598 51.9323 276.184 53.4948 276.184 55.5ZM302.59 55.5C302.59 57.5052 302.004 59.0677 300.832 60.1875C299.673 61.3073 298.286 61.8672 296.672 61.8672C295.07 61.8672 293.677 61.3138 292.492 60.207C291.32 59.0872 290.734 57.5312 290.734 55.5391C290.734 53.5208 291.32 51.9453 292.492 50.8125C293.677 49.6797 295.07 49.1133 296.672 49.1133C298.273 49.1133 299.66 49.6797 300.832 50.8125C302.004 51.9323 302.59 53.4948 302.59 55.5ZM328.996 55.5C328.996 57.5052 328.41 59.0677 327.238 60.1875C326.079 61.3073 324.693 61.8672 323.078 61.8672C321.477 61.8672 320.083 61.3138 318.898 60.207C317.727 59.0872 317.141 57.5312 317.141 55.5391C317.141 53.5208 317.727 51.9453 318.898 50.8125C320.083 49.6797 321.477 49.1133 323.078 49.1133C324.68 49.1133 326.066 49.6797 327.238 50.8125C328.41 51.9323 328.996 53.4948 328.996 55.5ZM355.402 55.5C355.402 57.5052 354.816 59.0677 353.645 60.1875C352.486 61.3073 351.099 61.8672 349.484 61.8672C347.883 61.8672 346.49 61.3138 345.305 60.207C344.133 59.0872 343.547 57.5312 343.547 55.5391C343.547 53.5208 344.133 51.9453 345.305 50.8125C346.49 49.6797 347.883 49.1133 349.484 49.1133C351.086 49.1133 352.473 49.6797 353.645 50.8125C354.816 51.9323 355.402 53.4948 355.402 55.5ZM381.809 55.5C381.809 57.5052 381.223 59.0677 380.051 60.1875C378.892 61.3073 377.505 61.8672 375.891 61.8672C374.289 61.8672 372.896 61.3138 371.711 60.207C370.539 59.0872 369.953 57.5312 369.953 55.5391C369.953 53.5208 370.539 51.9453 371.711 50.8125C372.896 49.6797 374.289 49.1133 375.891 49.1133C377.492 49.1133 378.879 49.6797 380.051 50.8125C381.223 51.9323 381.809 53.4948 381.809 55.5ZM408.215 55.5C408.215 57.5052 407.629 59.0677 406.457 60.1875C405.298 61.3073 403.911 61.8672 402.297 61.8672C400.695 61.8672 399.302 61.3138 398.117 60.207C396.945 59.0872 396.359 57.5312 396.359 55.5391C396.359 53.5208 396.945 51.9453 398.117 50.8125C399.302 49.6797 400.695 49.1133 402.297 49.1133C403.898 49.1133 405.285 49.6797 406.457 50.8125C407.629 51.9323 408.215 53.4948 408.215 55.5ZM434.621 55.5C434.621 57.5052 434.035 59.0677 432.863 60.1875C431.704 61.3073 430.318 61.8672 428.703 61.8672C427.102 61.8672 425.708 61.3138 424.523 60.207C423.352 59.0872 422.766 57.5312 422.766 55.5391C422.766 53.5208 423.352 51.9453 424.523 50.8125C425.708 49.6797 427.102 49.1133 428.703 49.1133C430.305 49.1133 431.691 49.6797 432.863 50.8125C434.035 51.9323 434.621 53.4948 434.621 55.5ZM461.027 55.5C461.027 57.5052 460.441 59.0677 459.27 60.1875C458.111 61.3073 456.724 61.8672 455.109 61.8672C453.508 61.8672 452.115 61.3138 450.93 60.207C449.758 59.0872 449.172 57.5312 449.172 55.5391C449.172 53.5208 449.758 51.9453 450.93 50.8125C452.115 49.6797 453.508 49.1133 455.109 49.1133C456.711 49.1133 458.098 49.6797 459.27 50.8125C460.441 51.9323 461.027 53.4948 461.027 55.5ZM12.1211 104.5C12.1211 106.505 11.5352 108.068 10.3633 109.188C9.20443 110.307 7.81771 110.867 6.20312 110.867C4.60156 110.867 3.20833 110.314 2.02344 109.207C0.851562 108.087 0.265625 106.531 0.265625 104.539C0.265625 102.521 0.851562 100.945 2.02344 99.8125C3.20833 98.6797 4.60156 98.1133 6.20312 98.1133C7.80469 98.1133 9.19141 98.6797 10.3633 99.8125C11.5352 100.932 12.1211 102.495 12.1211 104.5ZM38.5273 104.5C38.5273 106.505 37.9414 108.068 36.7695 109.188C35.6107 110.307 34.224 110.867 32.6094 110.867C31.0078 110.867 29.6146 110.314 28.4297 109.207C27.2578 108.087 26.6719 106.531 26.6719 104.539C26.6719 102.521 27.2578 100.945 28.4297 99.8125C29.6146 98.6797 31.0078 98.1133 32.6094 98.1133C34.2109 98.1133 35.5977 98.6797 36.7695 99.8125C37.9414 100.932 38.5273 102.495 38.5273 104.5ZM64.9336 104.5C64.9336 106.505 64.3477 108.068 63.1758 109.188C62.0169 110.307 60.6302 110.867 59.0156 110.867C57.4141 110.867 56.0208 110.314 54.8359 109.207C53.6641 108.087 53.0781 106.531 53.0781 104.539C53.0781 102.521 53.6641 100.945 54.8359 99.8125C56.0208 98.6797 57.4141 98.1133 59.0156 98.1133C60.6172 98.1133 62.0039 98.6797 63.1758 99.8125C64.3477 100.932 64.9336 102.495 64.9336 104.5ZM91.3398 104.5C91.3398 106.505 90.7539 108.068 89.582 109.188C88.4232 110.307 87.0365 110.867 85.4219 110.867C83.8203 110.867 82.4271 110.314 81.2422 109.207C80.0703 108.087 79.4844 106.531 79.4844 104.539C79.4844 102.521 80.0703 100.945 81.2422 99.8125C82.4271 98.6797 83.8203 98.1133 85.4219 98.1133C87.0234 98.1133 88.4102 98.6797 89.582 99.8125C90.7539 100.932 91.3398 102.495 91.3398 104.5ZM117.746 104.5C117.746 106.505 117.16 108.068 115.988 109.188C114.829 110.307 113.443 110.867 111.828 110.867C110.227 110.867 108.833 110.314 107.648 109.207C106.477 108.087 105.891 106.531 105.891 104.539C105.891 102.521 106.477 100.945 107.648 99.8125C108.833 98.6797 110.227 98.1133 111.828 98.1133C113.43 98.1133 114.816 98.6797 115.988 99.8125C117.16 100.932 117.746 102.495 117.746 104.5ZM144.152 104.5C144.152 106.505 143.566 108.068 142.395 109.188C141.236 110.307 139.849 110.867 138.234 110.867C136.633 110.867 135.24 110.314 134.055 109.207C132.883 108.087 132.297 106.531 132.297 104.539C132.297 102.521 132.883 100.945 134.055 99.8125C135.24 98.6797 136.633 98.1133 138.234 98.1133C139.836 98.1133 141.223 98.6797 142.395 99.8125C143.566 100.932 144.152 102.495 144.152 104.5ZM170.559 104.5C170.559 106.505 169.973 108.068 168.801 109.188C167.642 110.307 166.255 110.867 164.641 110.867C163.039 110.867 161.646 110.314 160.461 109.207C159.289 108.087 158.703 106.531 158.703 104.539C158.703 102.521 159.289 100.945 160.461 99.8125C161.646 98.6797 163.039 98.1133 164.641 98.1133C166.242 98.1133 167.629 98.6797 168.801 99.8125C169.973 100.932 170.559 102.495 170.559 104.5ZM196.965 104.5C196.965 106.505 196.379 108.068 195.207 109.188C194.048 110.307 192.661 110.867 191.047 110.867C189.445 110.867 188.052 110.314 186.867 109.207C185.695 108.087 185.109 106.531 185.109 104.539C185.109 102.521 185.695 100.945 186.867 99.8125C188.052 98.6797 189.445 98.1133 191.047 98.1133C192.648 98.1133 194.035 98.6797 195.207 99.8125C196.379 100.932 196.965 102.495 196.965 104.5ZM223.371 104.5C223.371 106.505 222.785 108.068 221.613 109.188C220.454 110.307 219.068 110.867 217.453 110.867C215.852 110.867 214.458 110.314 213.273 109.207C212.102 108.087 211.516 106.531 211.516 104.539C211.516 102.521 212.102 100.945 213.273 99.8125C214.458 98.6797 215.852 98.1133 217.453 98.1133C219.055 98.1133 220.441 98.6797 221.613 99.8125C222.785 100.932 223.371 102.495 223.371 104.5ZM249.777 104.5C249.777 106.505 249.191 108.068 248.02 109.188C246.861 110.307 245.474 110.867 243.859 110.867C242.258 110.867 240.865 110.314 239.68 109.207C238.508 108.087 237.922 106.531 237.922 104.539C237.922 102.521 238.508 100.945 239.68 99.8125C240.865 98.6797 242.258 98.1133 243.859 98.1133C245.461 98.1133 246.848 98.6797 248.02 99.8125C249.191 100.932 249.777 102.495 249.777 104.5ZM276.184 104.5C276.184 106.505 275.598 108.068 274.426 109.188C273.267 110.307 271.88 110.867 270.266 110.867C268.664 110.867 267.271 110.314 266.086 109.207C264.914 108.087 264.328 106.531 264.328 104.539C264.328 102.521 264.914 100.945 266.086 99.8125C267.271 98.6797 268.664 98.1133 270.266 98.1133C271.867 98.1133 273.254 98.6797 274.426 99.8125C275.598 100.932 276.184 102.495 276.184 104.5ZM302.59 104.5C302.59 106.505 302.004 108.068 300.832 109.188C299.673 110.307 298.286 110.867 296.672 110.867C295.07 110.867 293.677 110.314 292.492 109.207C291.32 108.087 290.734 106.531 290.734 104.539C290.734 102.521 291.32 100.945 292.492 99.8125C293.677 98.6797 295.07 98.1133 296.672 98.1133C298.273 98.1133 299.66 98.6797 300.832 99.8125C302.004 100.932 302.59 102.495 302.59 104.5ZM328.996 104.5C328.996 106.505 328.41 108.068 327.238 109.188C326.079 110.307 324.693 110.867 323.078 110.867C321.477 110.867 320.083 110.314 318.898 109.207C317.727 108.087 317.141 106.531 317.141 104.539C317.141 102.521 317.727 100.945 318.898 99.8125C320.083 98.6797 321.477 98.1133 323.078 98.1133C324.68 98.1133 326.066 98.6797 327.238 99.8125C328.41 100.932 328.996 102.495 328.996 104.5ZM355.402 104.5C355.402 106.505 354.816 108.068 353.645 109.188C352.486 110.307 351.099 110.867 349.484 110.867C347.883 110.867 346.49 110.314 345.305 109.207C344.133 108.087 343.547 106.531 343.547 104.539C343.547 102.521 344.133 100.945 345.305 99.8125C346.49 98.6797 347.883 98.1133 349.484 98.1133C351.086 98.1133 352.473 98.6797 353.645 99.8125C354.816 100.932 355.402 102.495 355.402 104.5ZM381.809 104.5C381.809 106.505 381.223 108.068 380.051 109.188C378.892 110.307 377.505 110.867 375.891 110.867C374.289 110.867 372.896 110.314 371.711 109.207C370.539 108.087 369.953 106.531 369.953 104.539C369.953 102.521 370.539 100.945 371.711 99.8125C372.896 98.6797 374.289 98.1133 375.891 98.1133C377.492 98.1133 378.879 98.6797 380.051 99.8125C381.223 100.932 381.809 102.495 381.809 104.5ZM408.215 104.5C408.215 106.505 407.629 108.068 406.457 109.188C405.298 110.307 403.911 110.867 402.297 110.867C400.695 110.867 399.302 110.314 398.117 109.207C396.945 108.087 396.359 106.531 396.359 104.539C396.359 102.521 396.945 100.945 398.117 99.8125C399.302 98.6797 400.695 98.1133 402.297 98.1133C403.898 98.1133 405.285 98.6797 406.457 99.8125C407.629 100.932 408.215 102.495 408.215 104.5ZM434.621 104.5C434.621 106.505 434.035 108.068 432.863 109.188C431.704 110.307 430.318 110.867 428.703 110.867C427.102 110.867 425.708 110.314 424.523 109.207C423.352 108.087 422.766 106.531 422.766 104.539C422.766 102.521 423.352 100.945 424.523 99.8125C425.708 98.6797 427.102 98.1133 428.703 98.1133C430.305 98.1133 431.691 98.6797 432.863 99.8125C434.035 100.932 434.621 102.495 434.621 104.5ZM461.027 104.5C461.027 106.505 460.441 108.068 459.27 109.188C458.111 110.307 456.724 110.867 455.109 110.867C453.508 110.867 452.115 110.314 450.93 109.207C449.758 108.087 449.172 106.531 449.172 104.539C449.172 102.521 449.758 100.945 450.93 99.8125C452.115 98.6797 453.508 98.1133 455.109 98.1133C456.711 98.1133 458.098 98.6797 459.27 99.8125C460.441 100.932 461.027 102.495 461.027 104.5ZM12.1211 153.5C12.1211 155.505 11.5352 157.068 10.3633 158.188C9.20443 159.307 7.81771 159.867 6.20312 159.867C4.60156 159.867 3.20833 159.314 2.02344 158.207C0.851562 157.087 0.265625 155.531 0.265625 153.539C0.265625 151.521 0.851562 149.945 2.02344 148.812C3.20833 147.68 4.60156 147.113 6.20312 147.113C7.80469 147.113 9.19141 147.68 10.3633 148.812C11.5352 149.932 12.1211 151.495 12.1211 153.5ZM38.5273 153.5C38.5273 155.505 37.9414 157.068 36.7695 158.188C35.6107 159.307 34.224 159.867 32.6094 159.867C31.0078 159.867 29.6146 159.314 28.4297 158.207C27.2578 157.087 26.6719 155.531 26.6719 153.539C26.6719 151.521 27.2578 149.945 28.4297 148.812C29.6146 147.68 31.0078 147.113 32.6094 147.113C34.2109 147.113 35.5977 147.68 36.7695 148.812C37.9414 149.932 38.5273 151.495 38.5273 153.5ZM64.9336 153.5C64.9336 155.505 64.3477 157.068 63.1758 158.188C62.0169 159.307 60.6302 159.867 59.0156 159.867C57.4141 159.867 56.0208 159.314 54.8359 158.207C53.6641 157.087 53.0781 155.531 53.0781 153.539C53.0781 151.521 53.6641 149.945 54.8359 148.812C56.0208 147.68 57.4141 147.113 59.0156 147.113C60.6172 147.113 62.0039 147.68 63.1758 148.812C64.3477 149.932 64.9336 151.495 64.9336 153.5ZM91.3398 153.5C91.3398 155.505 90.7539 157.068 89.582 158.188C88.4232 159.307 87.0365 159.867 85.4219 159.867C83.8203 159.867 82.4271 159.314 81.2422 158.207C80.0703 157.087 79.4844 155.531 79.4844 153.539C79.4844 151.521 80.0703 149.945 81.2422 148.812C82.4271 147.68 83.8203 147.113 85.4219 147.113C87.0234 147.113 88.4102 147.68 89.582 148.812C90.7539 149.932 91.3398 151.495 91.3398 153.5ZM117.746 153.5C117.746 155.505 117.16 157.068 115.988 158.188C114.829 159.307 113.443 159.867 111.828 159.867C110.227 159.867 108.833 159.314 107.648 158.207C106.477 157.087 105.891 155.531 105.891 153.539C105.891 151.521 106.477 149.945 107.648 148.812C108.833 147.68 110.227 147.113 111.828 147.113C113.43 147.113 114.816 147.68 115.988 148.812C117.16 149.932 117.746 151.495 117.746 153.5ZM144.152 153.5C144.152 155.505 143.566 157.068 142.395 158.188C141.236 159.307 139.849 159.867 138.234 159.867C136.633 159.867 135.24 159.314 134.055 158.207C132.883 157.087 132.297 155.531 132.297 153.539C132.297 151.521 132.883 149.945 134.055 148.812C135.24 147.68 136.633 147.113 138.234 147.113C139.836 147.113 141.223 147.68 142.395 148.812C143.566 149.932 144.152 151.495 144.152 153.5ZM170.559 153.5C170.559 155.505 169.973 157.068 168.801 158.188C167.642 159.307 166.255 159.867 164.641 159.867C163.039 159.867 161.646 159.314 160.461 158.207C159.289 157.087 158.703 155.531 158.703 153.539C158.703 151.521 159.289 149.945 160.461 148.812C161.646 147.68 163.039 147.113 164.641 147.113C166.242 147.113 167.629 147.68 168.801 148.812C169.973 149.932 170.559 151.495 170.559 153.5ZM196.965 153.5C196.965 155.505 196.379 157.068 195.207 158.188C194.048 159.307 192.661 159.867 191.047 159.867C189.445 159.867 188.052 159.314 186.867 158.207C185.695 157.087 185.109 155.531 185.109 153.539C185.109 151.521 185.695 149.945 186.867 148.812C188.052 147.68 189.445 147.113 191.047 147.113C192.648 147.113 194.035 147.68 195.207 148.812C196.379 149.932 196.965 151.495 196.965 153.5ZM223.371 153.5C223.371 155.505 222.785 157.068 221.613 158.188C220.454 159.307 219.068 159.867 217.453 159.867C215.852 159.867 214.458 159.314 213.273 158.207C212.102 157.087 211.516 155.531 211.516 153.539C211.516 151.521 212.102 149.945 213.273 148.812C214.458 147.68 215.852 147.113 217.453 147.113C219.055 147.113 220.441 147.68 221.613 148.812C222.785 149.932 223.371 151.495 223.371 153.5ZM249.777 153.5C249.777 155.505 249.191 157.068 248.02 158.188C246.861 159.307 245.474 159.867 243.859 159.867C242.258 159.867 240.865 159.314 239.68 158.207C238.508 157.087 237.922 155.531 237.922 153.539C237.922 151.521 238.508 149.945 239.68 148.812C240.865 147.68 242.258 147.113 243.859 147.113C245.461 147.113 246.848 147.68 248.02 148.812C249.191 149.932 249.777 151.495 249.777 153.5ZM276.184 153.5C276.184 155.505 275.598 157.068 274.426 158.188C273.267 159.307 271.88 159.867 270.266 159.867C268.664 159.867 267.271 159.314 266.086 158.207C264.914 157.087 264.328 155.531 264.328 153.539C264.328 151.521 264.914 149.945 266.086 148.812C267.271 147.68 268.664 147.113 270.266 147.113C271.867 147.113 273.254 147.68 274.426 148.812C275.598 149.932 276.184 151.495 276.184 153.5ZM302.59 153.5C302.59 155.505 302.004 157.068 300.832 158.188C299.673 159.307 298.286 159.867 296.672 159.867C295.07 159.867 293.677 159.314 292.492 158.207C291.32 157.087 290.734 155.531 290.734 153.539C290.734 151.521 291.32 149.945 292.492 148.812C293.677 147.68 295.07 147.113 296.672 147.113C298.273 147.113 299.66 147.68 300.832 148.812C302.004 149.932 302.59 151.495 302.59 153.5ZM328.996 153.5C328.996 155.505 328.41 157.068 327.238 158.188C326.079 159.307 324.693 159.867 323.078 159.867C321.477 159.867 320.083 159.314 318.898 158.207C317.727 157.087 317.141 155.531 317.141 153.539C317.141 151.521 317.727 149.945 318.898 148.812C320.083 147.68 321.477 147.113 323.078 147.113C324.68 147.113 326.066 147.68 327.238 148.812C328.41 149.932 328.996 151.495 328.996 153.5ZM355.402 153.5C355.402 155.505 354.816 157.068 353.645 158.188C352.486 159.307 351.099 159.867 349.484 159.867C347.883 159.867 346.49 159.314 345.305 158.207C344.133 157.087 343.547 155.531 343.547 153.539C343.547 151.521 344.133 149.945 345.305 148.812C346.49 147.68 347.883 147.113 349.484 147.113C351.086 147.113 352.473 147.68 353.645 148.812C354.816 149.932 355.402 151.495 355.402 153.5ZM381.809 153.5C381.809 155.505 381.223 157.068 380.051 158.188C378.892 159.307 377.505 159.867 375.891 159.867C374.289 159.867 372.896 159.314 371.711 158.207C370.539 157.087 369.953 155.531 369.953 153.539C369.953 151.521 370.539 149.945 371.711 148.812C372.896 147.68 374.289 147.113 375.891 147.113C377.492 147.113 378.879 147.68 380.051 148.812C381.223 149.932 381.809 151.495 381.809 153.5ZM408.215 153.5C408.215 155.505 407.629 157.068 406.457 158.188C405.298 159.307 403.911 159.867 402.297 159.867C400.695 159.867 399.302 159.314 398.117 158.207C396.945 157.087 396.359 155.531 396.359 153.539C396.359 151.521 396.945 149.945 398.117 148.812C399.302 147.68 400.695 147.113 402.297 147.113C403.898 147.113 405.285 147.68 406.457 148.812C407.629 149.932 408.215 151.495 408.215 153.5ZM434.621 153.5C434.621 155.505 434.035 157.068 432.863 158.188C431.704 159.307 430.318 159.867 428.703 159.867C427.102 159.867 425.708 159.314 424.523 158.207C423.352 157.087 422.766 155.531 422.766 153.539C422.766 151.521 423.352 149.945 424.523 148.812C425.708 147.68 427.102 147.113 428.703 147.113C430.305 147.113 431.691 147.68 432.863 148.812C434.035 149.932 434.621 151.495 434.621 153.5ZM461.027 153.5C461.027 155.505 460.441 157.068 459.27 158.188C458.111 159.307 456.724 159.867 455.109 159.867C453.508 159.867 452.115 159.314 450.93 158.207C449.758 157.087 449.172 155.531 449.172 153.539C449.172 151.521 449.758 149.945 450.93 148.812C452.115 147.68 453.508 147.113 455.109 147.113C456.711 147.113 458.098 147.68 459.27 148.812C460.441 149.932 461.027 151.495 461.027 153.5ZM12.1211 202.5C12.1211 204.505 11.5352 206.068 10.3633 207.188C9.20443 208.307 7.81771 208.867 6.20312 208.867C4.60156 208.867 3.20833 208.314 2.02344 207.207C0.851562 206.087 0.265625 204.531 0.265625 202.539C0.265625 200.521 0.851562 198.945 2.02344 197.812C3.20833 196.68 4.60156 196.113 6.20312 196.113C7.80469 196.113 9.19141 196.68 10.3633 197.812C11.5352 198.932 12.1211 200.495 12.1211 202.5ZM38.5273 202.5C38.5273 204.505 37.9414 206.068 36.7695 207.188C35.6107 208.307 34.224 208.867 32.6094 208.867C31.0078 208.867 29.6146 208.314 28.4297 207.207C27.2578 206.087 26.6719 204.531 26.6719 202.539C26.6719 200.521 27.2578 198.945 28.4297 197.812C29.6146 196.68 31.0078 196.113 32.6094 196.113C34.2109 196.113 35.5977 196.68 36.7695 197.812C37.9414 198.932 38.5273 200.495 38.5273 202.5ZM64.9336 202.5C64.9336 204.505 64.3477 206.068 63.1758 207.188C62.0169 208.307 60.6302 208.867 59.0156 208.867C57.4141 208.867 56.0208 208.314 54.8359 207.207C53.6641 206.087 53.0781 204.531 53.0781 202.539C53.0781 200.521 53.6641 198.945 54.8359 197.812C56.0208 196.68 57.4141 196.113 59.0156 196.113C60.6172 196.113 62.0039 196.68 63.1758 197.812C64.3477 198.932 64.9336 200.495 64.9336 202.5ZM91.3398 202.5C91.3398 204.505 90.7539 206.068 89.582 207.188C88.4232 208.307 87.0365 208.867 85.4219 208.867C83.8203 208.867 82.4271 208.314 81.2422 207.207C80.0703 206.087 79.4844 204.531 79.4844 202.539C79.4844 200.521 80.0703 198.945 81.2422 197.812C82.4271 196.68 83.8203 196.113 85.4219 196.113C87.0234 196.113 88.4102 196.68 89.582 197.812C90.7539 198.932 91.3398 200.495 91.3398 202.5ZM117.746 202.5C117.746 204.505 117.16 206.068 115.988 207.188C114.829 208.307 113.443 208.867 111.828 208.867C110.227 208.867 108.833 208.314 107.648 207.207C106.477 206.087 105.891 204.531 105.891 202.539C105.891 200.521 106.477 198.945 107.648 197.812C108.833 196.68 110.227 196.113 111.828 196.113C113.43 196.113 114.816 196.68 115.988 197.812C117.16 198.932 117.746 200.495 117.746 202.5ZM144.152 202.5C144.152 204.505 143.566 206.068 142.395 207.188C141.236 208.307 139.849 208.867 138.234 208.867C136.633 208.867 135.24 208.314 134.055 207.207C132.883 206.087 132.297 204.531 132.297 202.539C132.297 200.521 132.883 198.945 134.055 197.812C135.24 196.68 136.633 196.113 138.234 196.113C139.836 196.113 141.223 196.68 142.395 197.812C143.566 198.932 144.152 200.495 144.152 202.5ZM170.559 202.5C170.559 204.505 169.973 206.068 168.801 207.188C167.642 208.307 166.255 208.867 164.641 208.867C163.039 208.867 161.646 208.314 160.461 207.207C159.289 206.087 158.703 204.531 158.703 202.539C158.703 200.521 159.289 198.945 160.461 197.812C161.646 196.68 163.039 196.113 164.641 196.113C166.242 196.113 167.629 196.68 168.801 197.812C169.973 198.932 170.559 200.495 170.559 202.5ZM196.965 202.5C196.965 204.505 196.379 206.068 195.207 207.188C194.048 208.307 192.661 208.867 191.047 208.867C189.445 208.867 188.052 208.314 186.867 207.207C185.695 206.087 185.109 204.531 185.109 202.539C185.109 200.521 185.695 198.945 186.867 197.812C188.052 196.68 189.445 196.113 191.047 196.113C192.648 196.113 194.035 196.68 195.207 197.812C196.379 198.932 196.965 200.495 196.965 202.5ZM223.371 202.5C223.371 204.505 222.785 206.068 221.613 207.188C220.454 208.307 219.068 208.867 217.453 208.867C215.852 208.867 214.458 208.314 213.273 207.207C212.102 206.087 211.516 204.531 211.516 202.539C211.516 200.521 212.102 198.945 213.273 197.812C214.458 196.68 215.852 196.113 217.453 196.113C219.055 196.113 220.441 196.68 221.613 197.812C222.785 198.932 223.371 200.495 223.371 202.5ZM249.777 202.5C249.777 204.505 249.191 206.068 248.02 207.188C246.861 208.307 245.474 208.867 243.859 208.867C242.258 208.867 240.865 208.314 239.68 207.207C238.508 206.087 237.922 204.531 237.922 202.539C237.922 200.521 238.508 198.945 239.68 197.812C240.865 196.68 242.258 196.113 243.859 196.113C245.461 196.113 246.848 196.68 248.02 197.812C249.191 198.932 249.777 200.495 249.777 202.5ZM276.184 202.5C276.184 204.505 275.598 206.068 274.426 207.188C273.267 208.307 271.88 208.867 270.266 208.867C268.664 208.867 267.271 208.314 266.086 207.207C264.914 206.087 264.328 204.531 264.328 202.539C264.328 200.521 264.914 198.945 266.086 197.812C267.271 196.68 268.664 196.113 270.266 196.113C271.867 196.113 273.254 196.68 274.426 197.812C275.598 198.932 276.184 200.495 276.184 202.5ZM302.59 202.5C302.59 204.505 302.004 206.068 300.832 207.188C299.673 208.307 298.286 208.867 296.672 208.867C295.07 208.867 293.677 208.314 292.492 207.207C291.32 206.087 290.734 204.531 290.734 202.539C290.734 200.521 291.32 198.945 292.492 197.812C293.677 196.68 295.07 196.113 296.672 196.113C298.273 196.113 299.66 196.68 300.832 197.812C302.004 198.932 302.59 200.495 302.59 202.5ZM328.996 202.5C328.996 204.505 328.41 206.068 327.238 207.188C326.079 208.307 324.693 208.867 323.078 208.867C321.477 208.867 320.083 208.314 318.898 207.207C317.727 206.087 317.141 204.531 317.141 202.539C317.141 200.521 317.727 198.945 318.898 197.812C320.083 196.68 321.477 196.113 323.078 196.113C324.68 196.113 326.066 196.68 327.238 197.812C328.41 198.932 328.996 200.495 328.996 202.5ZM355.402 202.5C355.402 204.505 354.816 206.068 353.645 207.188C352.486 208.307 351.099 208.867 349.484 208.867C347.883 208.867 346.49 208.314 345.305 207.207C344.133 206.087 343.547 204.531 343.547 202.539C343.547 200.521 344.133 198.945 345.305 197.812C346.49 196.68 347.883 196.113 349.484 196.113C351.086 196.113 352.473 196.68 353.645 197.812C354.816 198.932 355.402 200.495 355.402 202.5ZM381.809 202.5C381.809 204.505 381.223 206.068 380.051 207.188C378.892 208.307 377.505 208.867 375.891 208.867C374.289 208.867 372.896 208.314 371.711 207.207C370.539 206.087 369.953 204.531 369.953 202.539C369.953 200.521 370.539 198.945 371.711 197.812C372.896 196.68 374.289 196.113 375.891 196.113C377.492 196.113 378.879 196.68 380.051 197.812C381.223 198.932 381.809 200.495 381.809 202.5ZM408.215 202.5C408.215 204.505 407.629 206.068 406.457 207.188C405.298 208.307 403.911 208.867 402.297 208.867C400.695 208.867 399.302 208.314 398.117 207.207C396.945 206.087 396.359 204.531 396.359 202.539C396.359 200.521 396.945 198.945 398.117 197.812C399.302 196.68 400.695 196.113 402.297 196.113C403.898 196.113 405.285 196.68 406.457 197.812C407.629 198.932 408.215 200.495 408.215 202.5ZM434.621 202.5C434.621 204.505 434.035 206.068 432.863 207.188C431.704 208.307 430.318 208.867 428.703 208.867C427.102 208.867 425.708 208.314 424.523 207.207C423.352 206.087 422.766 204.531 422.766 202.539C422.766 200.521 423.352 198.945 424.523 197.812C425.708 196.68 427.102 196.113 428.703 196.113C430.305 196.113 431.691 196.68 432.863 197.812C434.035 198.932 434.621 200.495 434.621 202.5ZM461.027 202.5C461.027 204.505 460.441 206.068 459.27 207.188C458.111 208.307 456.724 208.867 455.109 208.867C453.508 208.867 452.115 208.314 450.93 207.207C449.758 206.087 449.172 204.531 449.172 202.539C449.172 200.521 449.758 198.945 450.93 197.812C452.115 196.68 453.508 196.113 455.109 196.113C456.711 196.113 458.098 196.68 459.27 197.812C460.441 198.932 461.027 200.495 461.027 202.5Z" fill="white"/>
</svg>
