<svg width="307" height="72" viewBox="0 0 307 72" fill="none" xmlns="http://www.w3.org/2000/svg">
<path d="M0.2 35.9C0.2 33.4333 0.8 31.7 2 30.7C3.2 29.7 4.63333 29.2 6.3 29.2C8.03333 29.2 9.5 29.7 10.7 30.7C11.9667 31.7 12.6 33.4333 12.6 35.9C12.6 38.3 11.9667 40.0333 10.7 41.1C9.5 42.1667 8.03333 42.7 6.3 42.7C4.63333 42.7 3.2 42.1667 2 41.1C0.8 40.0333 0.2 38.3 0.2 35.9ZM0.2 64.6C0.2 62.1333 0.8 60.4 2 59.4C3.2 58.4 4.63333 57.9 6.3 57.9C8.03333 57.9 9.5 58.4 10.7 59.4C11.9667 60.4 12.6 62.1333 12.6 64.6C12.6 67 11.9667 68.7333 10.7 69.8C9.5 70.8667 8.03333 71.4 6.3 71.4C4.63333 71.4 3.2 70.8667 2 69.8C0.8 68.7333 0.2 67 0.2 64.6ZM0.2 6.9C0.2 4.43333 0.8 2.7 2 1.7C3.2 0.699998 4.63333 0.199999 6.3 0.199999C8.03333 0.199999 9.5 0.699998 10.7 1.7C11.9667 2.7 12.6 4.43333 12.6 6.9C12.6 9.3 11.9667 11.0333 10.7 12.1C9.5 13.1667 8.03333 13.7 6.3 13.7C4.63333 13.7 3.2 13.1667 2 12.1C0.8 11.0333 0.2 9.3 0.2 6.9ZM26.9578 35.9C26.9578 33.4333 27.5578 31.7 28.7578 30.7C29.9578 29.7 31.3911 29.2 33.0578 29.2C34.7911 29.2 36.2578 29.7 37.4578 30.7C38.7245 31.7 39.3578 33.4333 39.3578 35.9C39.3578 38.3 38.7245 40.0333 37.4578 41.1C36.2578 42.1667 34.7911 42.7 33.0578 42.7C31.3911 42.7 29.9578 42.1667 28.7578 41.1C27.5578 40.0333 26.9578 38.3 26.9578 35.9ZM26.9578 64.6C26.9578 62.1333 27.5578 60.4 28.7578 59.4C29.9578 58.4 31.3911 57.9 33.0578 57.9C34.7911 57.9 36.2578 58.4 37.4578 59.4C38.7245 60.4 39.3578 62.1333 39.3578 64.6C39.3578 67 38.7245 68.7333 37.4578 69.8C36.2578 70.8667 34.7911 71.4 33.0578 71.4C31.3911 71.4 29.9578 70.8667 28.7578 69.8C27.5578 68.7333 26.9578 67 26.9578 64.6ZM26.9578 6.9C26.9578 4.43333 27.5578 2.7 28.7578 1.7C29.9578 0.699998 31.3911 0.199999 33.0578 0.199999C34.7911 0.199999 36.2578 0.699998 37.4578 1.7C38.7245 2.7 39.3578 4.43333 39.3578 6.9C39.3578 9.3 38.7245 11.0333 37.4578 12.1C36.2578 13.1667 34.7911 13.7 33.0578 13.7C31.3911 13.7 29.9578 13.1667 28.7578 12.1C27.5578 11.0333 26.9578 9.3 26.9578 6.9ZM53.7156 35.9C53.7156 33.4333 54.3156 31.7 55.5156 30.7C56.7156 29.7 58.149 29.2 59.8156 29.2C61.549 29.2 63.0156 29.7 64.2156 30.7C65.4823 31.7 66.1156 33.4333 66.1156 35.9C66.1156 38.3 65.4823 40.0333 64.2156 41.1C63.0156 42.1667 61.549 42.7 59.8156 42.7C58.149 42.7 56.7156 42.1667 55.5156 41.1C54.3156 40.0333 53.7156 38.3 53.7156 35.9ZM53.7156 64.6C53.7156 62.1333 54.3156 60.4 55.5156 59.4C56.7156 58.4 58.149 57.9 59.8156 57.9C61.549 57.9 63.0156 58.4 64.2156 59.4C65.4823 60.4 66.1156 62.1333 66.1156 64.6C66.1156 67 65.4823 68.7333 64.2156 69.8C63.0156 70.8667 61.549 71.4 59.8156 71.4C58.149 71.4 56.7156 70.8667 55.5156 69.8C54.3156 68.7333 53.7156 67 53.7156 64.6ZM53.7156 6.9C53.7156 4.43333 54.3156 2.7 55.5156 1.7C56.7156 0.699998 58.149 0.199999 59.8156 0.199999C61.549 0.199999 63.0156 0.699998 64.2156 1.7C65.4823 2.7 66.1156 4.43333 66.1156 6.9C66.1156 9.3 65.4823 11.0333 64.2156 12.1C63.0156 13.1667 61.549 13.7 59.8156 13.7C58.149 13.7 56.7156 13.1667 55.5156 12.1C54.3156 11.0333 53.7156 9.3 53.7156 6.9ZM80.4734 35.9C80.4734 33.4333 81.0734 31.7 82.2734 30.7C83.4734 29.7 84.9068 29.2 86.5734 29.2C88.3068 29.2 89.7734 29.7 90.9734 30.7C92.2401 31.7 92.8734 33.4333 92.8734 35.9C92.8734 38.3 92.2401 40.0333 90.9734 41.1C89.7734 42.1667 88.3068 42.7 86.5734 42.7C84.9068 42.7 83.4734 42.1667 82.2734 41.1C81.0734 40.0333 80.4734 38.3 80.4734 35.9ZM80.4734 64.6C80.4734 62.1333 81.0734 60.4 82.2734 59.4C83.4734 58.4 84.9068 57.9 86.5734 57.9C88.3068 57.9 89.7734 58.4 90.9734 59.4C92.2401 60.4 92.8734 62.1333 92.8734 64.6C92.8734 67 92.2401 68.7333 90.9734 69.8C89.7734 70.8667 88.3068 71.4 86.5734 71.4C84.9068 71.4 83.4734 70.8667 82.2734 69.8C81.0734 68.7333 80.4734 67 80.4734 64.6ZM80.4734 6.9C80.4734 4.43333 81.0734 2.7 82.2734 1.7C83.4734 0.699998 84.9068 0.199999 86.5734 0.199999C88.3068 0.199999 89.7734 0.699998 90.9734 1.7C92.2401 2.7 92.8734 4.43333 92.8734 6.9C92.8734 9.3 92.2401 11.0333 90.9734 12.1C89.7734 13.1667 88.3068 13.7 86.5734 13.7C84.9068 13.7 83.4734 13.1667 82.2734 12.1C81.0734 11.0333 80.4734 9.3 80.4734 6.9ZM107.231 35.9C107.231 33.4333 107.831 31.7 109.031 30.7C110.231 29.7 111.665 29.2 113.331 29.2C115.065 29.2 116.531 29.7 117.731 30.7C118.998 31.7 119.631 33.4333 119.631 35.9C119.631 38.3 118.998 40.0333 117.731 41.1C116.531 42.1667 115.065 42.7 113.331 42.7C111.665 42.7 110.231 42.1667 109.031 41.1C107.831 40.0333 107.231 38.3 107.231 35.9ZM107.231 64.6C107.231 62.1333 107.831 60.4 109.031 59.4C110.231 58.4 111.665 57.9 113.331 57.9C115.065 57.9 116.531 58.4 117.731 59.4C118.998 60.4 119.631 62.1333 119.631 64.6C119.631 67 118.998 68.7333 117.731 69.8C116.531 70.8667 115.065 71.4 113.331 71.4C111.665 71.4 110.231 70.8667 109.031 69.8C107.831 68.7333 107.231 67 107.231 64.6ZM107.231 6.9C107.231 4.43333 107.831 2.7 109.031 1.7C110.231 0.699998 111.665 0.199999 113.331 0.199999C115.065 0.199999 116.531 0.699998 117.731 1.7C118.998 2.7 119.631 4.43333 119.631 6.9C119.631 9.3 118.998 11.0333 117.731 12.1C116.531 13.1667 115.065 13.7 113.331 13.7C111.665 13.7 110.231 13.1667 109.031 12.1C107.831 11.0333 107.231 9.3 107.231 6.9ZM133.989 35.9C133.989 33.4333 134.589 31.7 135.789 30.7C136.989 29.7 138.422 29.2 140.089 29.2C141.822 29.2 143.289 29.7 144.489 30.7C145.756 31.7 146.389 33.4333 146.389 35.9C146.389 38.3 145.756 40.0333 144.489 41.1C143.289 42.1667 141.822 42.7 140.089 42.7C138.422 42.7 136.989 42.1667 135.789 41.1C134.589 40.0333 133.989 38.3 133.989 35.9ZM133.989 64.6C133.989 62.1333 134.589 60.4 135.789 59.4C136.989 58.4 138.422 57.9 140.089 57.9C141.822 57.9 143.289 58.4 144.489 59.4C145.756 60.4 146.389 62.1333 146.389 64.6C146.389 67 145.756 68.7333 144.489 69.8C143.289 70.8667 141.822 71.4 140.089 71.4C138.422 71.4 136.989 70.8667 135.789 69.8C134.589 68.7333 133.989 67 133.989 64.6ZM133.989 6.9C133.989 4.43333 134.589 2.7 135.789 1.7C136.989 0.699998 138.422 0.199999 140.089 0.199999C141.822 0.199999 143.289 0.699998 144.489 1.7C145.756 2.7 146.389 4.43333 146.389 6.9C146.389 9.3 145.756 11.0333 144.489 12.1C143.289 13.1667 141.822 13.7 140.089 13.7C138.422 13.7 136.989 13.1667 135.789 12.1C134.589 11.0333 133.989 9.3 133.989 6.9ZM160.747 35.9C160.747 33.4333 161.347 31.7 162.547 30.7C163.747 29.7 165.18 29.2 166.847 29.2C168.58 29.2 170.047 29.7 171.247 30.7C172.514 31.7 173.147 33.4333 173.147 35.9C173.147 38.3 172.514 40.0333 171.247 41.1C170.047 42.1667 168.58 42.7 166.847 42.7C165.18 42.7 163.747 42.1667 162.547 41.1C161.347 40.0333 160.747 38.3 160.747 35.9ZM160.747 64.6C160.747 62.1333 161.347 60.4 162.547 59.4C163.747 58.4 165.18 57.9 166.847 57.9C168.58 57.9 170.047 58.4 171.247 59.4C172.514 60.4 173.147 62.1333 173.147 64.6C173.147 67 172.514 68.7333 171.247 69.8C170.047 70.8667 168.58 71.4 166.847 71.4C165.18 71.4 163.747 70.8667 162.547 69.8C161.347 68.7333 160.747 67 160.747 64.6ZM160.747 6.9C160.747 4.43333 161.347 2.7 162.547 1.7C163.747 0.699998 165.18 0.199999 166.847 0.199999C168.58 0.199999 170.047 0.699998 171.247 1.7C172.514 2.7 173.147 4.43333 173.147 6.9C173.147 9.3 172.514 11.0333 171.247 12.1C170.047 13.1667 168.58 13.7 166.847 13.7C165.18 13.7 163.747 13.1667 162.547 12.1C161.347 11.0333 160.747 9.3 160.747 6.9ZM187.505 35.9C187.505 33.4333 188.105 31.7 189.305 30.7C190.505 29.7 191.938 29.2 193.605 29.2C195.338 29.2 196.805 29.7 198.005 30.7C199.271 31.7 199.905 33.4333 199.905 35.9C199.905 38.3 199.271 40.0333 198.005 41.1C196.805 42.1667 195.338 42.7 193.605 42.7C191.938 42.7 190.505 42.1667 189.305 41.1C188.105 40.0333 187.505 38.3 187.505 35.9ZM187.505 64.6C187.505 62.1333 188.105 60.4 189.305 59.4C190.505 58.4 191.938 57.9 193.605 57.9C195.338 57.9 196.805 58.4 198.005 59.4C199.271 60.4 199.905 62.1333 199.905 64.6C199.905 67 199.271 68.7333 198.005 69.8C196.805 70.8667 195.338 71.4 193.605 71.4C191.938 71.4 190.505 70.8667 189.305 69.8C188.105 68.7333 187.505 67 187.505 64.6ZM187.505 6.9C187.505 4.43333 188.105 2.7 189.305 1.7C190.505 0.699998 191.938 0.199999 193.605 0.199999C195.338 0.199999 196.805 0.699998 198.005 1.7C199.271 2.7 199.905 4.43333 199.905 6.9C199.905 9.3 199.271 11.0333 198.005 12.1C196.805 13.1667 195.338 13.7 193.605 13.7C191.938 13.7 190.505 13.1667 189.305 12.1C188.105 11.0333 187.505 9.3 187.505 6.9ZM214.263 35.9C214.263 33.4333 214.863 31.7 216.063 30.7C217.263 29.7 218.696 29.2 220.363 29.2C222.096 29.2 223.563 29.7 224.763 30.7C226.029 31.7 226.663 33.4333 226.663 35.9C226.663 38.3 226.029 40.0333 224.763 41.1C223.563 42.1667 222.096 42.7 220.363 42.7C218.696 42.7 217.263 42.1667 216.063 41.1C214.863 40.0333 214.263 38.3 214.263 35.9ZM214.263 64.6C214.263 62.1333 214.863 60.4 216.063 59.4C217.263 58.4 218.696 57.9 220.363 57.9C222.096 57.9 223.563 58.4 224.763 59.4C226.029 60.4 226.663 62.1333 226.663 64.6C226.663 67 226.029 68.7333 224.763 69.8C223.563 70.8667 222.096 71.4 220.363 71.4C218.696 71.4 217.263 70.8667 216.063 69.8C214.863 68.7333 214.263 67 214.263 64.6ZM214.263 6.9C214.263 4.43333 214.863 2.7 216.063 1.7C217.263 0.699998 218.696 0.199999 220.363 0.199999C222.096 0.199999 223.563 0.699998 224.763 1.7C226.029 2.7 226.663 4.43333 226.663 6.9C226.663 9.3 226.029 11.0333 224.763 12.1C223.563 13.1667 222.096 13.7 220.363 13.7C218.696 13.7 217.263 13.1667 216.063 12.1C214.863 11.0333 214.263 9.3 214.263 6.9ZM241.02 35.9C241.02 33.4333 241.62 31.7 242.82 30.7C244.02 29.7 245.454 29.2 247.12 29.2C248.854 29.2 250.32 29.7 251.52 30.7C252.787 31.7 253.42 33.4333 253.42 35.9C253.42 38.3 252.787 40.0333 251.52 41.1C250.32 42.1667 248.854 42.7 247.12 42.7C245.454 42.7 244.02 42.1667 242.82 41.1C241.62 40.0333 241.02 38.3 241.02 35.9ZM241.02 64.6C241.02 62.1333 241.62 60.4 242.82 59.4C244.02 58.4 245.454 57.9 247.12 57.9C248.854 57.9 250.32 58.4 251.52 59.4C252.787 60.4 253.42 62.1333 253.42 64.6C253.42 67 252.787 68.7333 251.52 69.8C250.32 70.8667 248.854 71.4 247.12 71.4C245.454 71.4 244.02 70.8667 242.82 69.8C241.62 68.7333 241.02 67 241.02 64.6ZM241.02 6.9C241.02 4.43333 241.62 2.7 242.82 1.7C244.02 0.699998 245.454 0.199999 247.12 0.199999C248.854 0.199999 250.32 0.699998 251.52 1.7C252.787 2.7 253.42 4.43333 253.42 6.9C253.42 9.3 252.787 11.0333 251.52 12.1C250.32 13.1667 248.854 13.7 247.12 13.7C245.454 13.7 244.02 13.1667 242.82 12.1C241.62 11.0333 241.02 9.3 241.02 6.9ZM267.778 35.9C267.778 33.4333 268.378 31.7 269.578 30.7C270.778 29.7 272.211 29.2 273.878 29.2C275.611 29.2 277.078 29.7 278.278 30.7C279.545 31.7 280.178 33.4333 280.178 35.9C280.178 38.3 279.545 40.0333 278.278 41.1C277.078 42.1667 275.611 42.7 273.878 42.7C272.211 42.7 270.778 42.1667 269.578 41.1C268.378 40.0333 267.778 38.3 267.778 35.9ZM267.778 64.6C267.778 62.1333 268.378 60.4 269.578 59.4C270.778 58.4 272.211 57.9 273.878 57.9C275.611 57.9 277.078 58.4 278.278 59.4C279.545 60.4 280.178 62.1333 280.178 64.6C280.178 67 279.545 68.7333 278.278 69.8C277.078 70.8667 275.611 71.4 273.878 71.4C272.211 71.4 270.778 70.8667 269.578 69.8C268.378 68.7333 267.778 67 267.778 64.6ZM267.778 6.9C267.778 4.43333 268.378 2.7 269.578 1.7C270.778 0.699998 272.211 0.199999 273.878 0.199999C275.611 0.199999 277.078 0.699998 278.278 1.7C279.545 2.7 280.178 4.43333 280.178 6.9C280.178 9.3 279.545 11.0333 278.278 12.1C277.078 13.1667 275.611 13.7 273.878 13.7C272.211 13.7 270.778 13.1667 269.578 12.1C268.378 11.0333 267.778 9.3 267.778 6.9ZM294.536 35.9C294.536 33.4333 295.136 31.7 296.336 30.7C297.536 29.7 298.969 29.2 300.636 29.2C302.369 29.2 303.836 29.7 305.036 30.7C306.303 31.7 306.936 33.4333 306.936 35.9C306.936 38.3 306.303 40.0333 305.036 41.1C303.836 42.1667 302.369 42.7 300.636 42.7C298.969 42.7 297.536 42.1667 296.336 41.1C295.136 40.0333 294.536 38.3 294.536 35.9ZM294.536 64.6C294.536 62.1333 295.136 60.4 296.336 59.4C297.536 58.4 298.969 57.9 300.636 57.9C302.369 57.9 303.836 58.4 305.036 59.4C306.303 60.4 306.936 62.1333 306.936 64.6C306.936 67 306.303 68.7333 305.036 69.8C303.836 70.8667 302.369 71.4 300.636 71.4C298.969 71.4 297.536 70.8667 296.336 69.8C295.136 68.7333 294.536 67 294.536 64.6ZM294.536 6.9C294.536 4.43333 295.136 2.7 296.336 1.7C297.536 0.699998 298.969 0.199999 300.636 0.199999C302.369 0.199999 303.836 0.699998 305.036 1.7C306.303 2.7 306.936 4.43333 306.936 6.9C306.936 9.3 306.303 11.0333 305.036 12.1C303.836 13.1667 302.369 13.7 300.636 13.7C298.969 13.7 297.536 13.1667 296.336 12.1C295.136 11.0333 294.536 9.3 294.536 6.9Z" fill="white"/>
</svg>
