<svg width="461" height="238" viewBox="0 0 461 238" fill="none" xmlns="http://www.w3.org/2000/svg">
<path d="M0.800001 53.85C0.800001 50.15 1.7 47.55 3.5 46.05C5.3 44.55 7.45 43.8 9.95 43.8C12.55 43.8 14.75 44.55 16.55 46.05C18.45 47.55 19.4 50.15 19.4 53.85C19.4 57.45 18.45 60.05 16.55 61.65C14.75 63.25 12.55 64.05 9.95 64.05C7.45 64.05 5.3 63.25 3.5 61.65C1.7 60.05 0.800001 57.45 0.800001 53.85ZM0.800001 96.9C0.800001 93.2 1.7 90.6 3.5 89.1C5.3 87.6 7.45 86.85 9.95 86.85C12.55 86.85 14.75 87.6 16.55 89.1C18.45 90.6 19.4 93.2 19.4 96.9C19.4 100.5 18.45 103.1 16.55 104.7C14.75 106.3 12.55 107.1 9.95 107.1C7.45 107.1 5.3 106.3 3.5 104.7C1.7 103.1 0.800001 100.5 0.800001 96.9ZM0.800001 10.35C0.800001 6.64999 1.7 4.04999 3.5 2.55C5.3 1.05 7.45 0.299998 9.95 0.299998C12.55 0.299998 14.75 1.05 16.55 2.55C18.45 4.04999 19.4 6.64999 19.4 10.35C19.4 13.95 18.45 16.55 16.55 18.15C14.75 19.75 12.55 20.55 9.95 20.55C7.45 20.55 5.3 19.75 3.5 18.15C1.7 16.55 0.800001 13.95 0.800001 10.35ZM40.9367 53.85C40.9367 50.15 41.8367 47.55 43.6367 46.05C45.4367 44.55 47.5867 43.8 50.0867 43.8C52.6867 43.8 54.8867 44.55 56.6867 46.05C58.5867 47.55 59.5367 50.15 59.5367 53.85C59.5367 57.45 58.5867 60.05 56.6867 61.65C54.8867 63.25 52.6867 64.05 50.0867 64.05C47.5867 64.05 45.4367 63.25 43.6367 61.65C41.8367 60.05 40.9367 57.45 40.9367 53.85ZM40.9367 96.9C40.9367 93.2 41.8367 90.6 43.6367 89.1C45.4367 87.6 47.5867 86.85 50.0867 86.85C52.6867 86.85 54.8867 87.6 56.6867 89.1C58.5867 90.6 59.5367 93.2 59.5367 96.9C59.5367 100.5 58.5867 103.1 56.6867 104.7C54.8867 106.3 52.6867 107.1 50.0867 107.1C47.5867 107.1 45.4367 106.3 43.6367 104.7C41.8367 103.1 40.9367 100.5 40.9367 96.9ZM40.9367 10.35C40.9367 6.64999 41.8367 4.04999 43.6367 2.55C45.4367 1.05 47.5867 0.299998 50.0867 0.299998C52.6867 0.299998 54.8867 1.05 56.6867 2.55C58.5867 4.04999 59.5367 6.64999 59.5367 10.35C59.5367 13.95 58.5867 16.55 56.6867 18.15C54.8867 19.75 52.6867 20.55 50.0867 20.55C47.5867 20.55 45.4367 19.75 43.6367 18.15C41.8367 16.55 40.9367 13.95 40.9367 10.35ZM81.0734 53.85C81.0734 50.15 81.9734 47.55 83.7734 46.05C85.5734 44.55 87.7234 43.8 90.2234 43.8C92.8234 43.8 95.0234 44.55 96.8234 46.05C98.7234 47.55 99.6734 50.15 99.6734 53.85C99.6734 57.45 98.7234 60.05 96.8234 61.65C95.0234 63.25 92.8234 64.05 90.2234 64.05C87.7234 64.05 85.5734 63.25 83.7734 61.65C81.9734 60.05 81.0734 57.45 81.0734 53.85ZM81.0734 96.9C81.0734 93.2 81.9734 90.6 83.7734 89.1C85.5734 87.6 87.7234 86.85 90.2234 86.85C92.8234 86.85 95.0234 87.6 96.8234 89.1C98.7234 90.6 99.6734 93.2 99.6734 96.9C99.6734 100.5 98.7234 103.1 96.8234 104.7C95.0234 106.3 92.8234 107.1 90.2234 107.1C87.7234 107.1 85.5734 106.3 83.7734 104.7C81.9734 103.1 81.0734 100.5 81.0734 96.9ZM81.0734 10.35C81.0734 6.64999 81.9734 4.04999 83.7734 2.55C85.5734 1.05 87.7234 0.299998 90.2234 0.299998C92.8234 0.299998 95.0234 1.05 96.8234 2.55C98.7234 4.04999 99.6734 6.64999 99.6734 10.35C99.6734 13.95 98.7234 16.55 96.8234 18.15C95.0234 19.75 92.8234 20.55 90.2234 20.55C87.7234 20.55 85.5734 19.75 83.7734 18.15C81.9734 16.55 81.0734 13.95 81.0734 10.35ZM121.21 53.85C121.21 50.15 122.11 47.55 123.91 46.05C125.71 44.55 127.86 43.8 130.36 43.8C132.96 43.8 135.16 44.55 136.96 46.05C138.86 47.55 139.81 50.15 139.81 53.85C139.81 57.45 138.86 60.05 136.96 61.65C135.16 63.25 132.96 64.05 130.36 64.05C127.86 64.05 125.71 63.25 123.91 61.65C122.11 60.05 121.21 57.45 121.21 53.85ZM121.21 96.9C121.21 93.2 122.11 90.6 123.91 89.1C125.71 87.6 127.86 86.85 130.36 86.85C132.96 86.85 135.16 87.6 136.96 89.1C138.86 90.6 139.81 93.2 139.81 96.9C139.81 100.5 138.86 103.1 136.96 104.7C135.16 106.3 132.96 107.1 130.36 107.1C127.86 107.1 125.71 106.3 123.91 104.7C122.11 103.1 121.21 100.5 121.21 96.9ZM121.21 10.35C121.21 6.64999 122.11 4.04999 123.91 2.55C125.71 1.05 127.86 0.299998 130.36 0.299998C132.96 0.299998 135.16 1.05 136.96 2.55C138.86 4.04999 139.81 6.64999 139.81 10.35C139.81 13.95 138.86 16.55 136.96 18.15C135.16 19.75 132.96 20.55 130.36 20.55C127.86 20.55 125.71 19.75 123.91 18.15C122.11 16.55 121.21 13.95 121.21 10.35ZM161.347 53.85C161.347 50.15 162.247 47.55 164.047 46.05C165.847 44.55 167.997 43.8 170.497 43.8C173.097 43.8 175.297 44.55 177.097 46.05C178.997 47.55 179.947 50.15 179.947 53.85C179.947 57.45 178.997 60.05 177.097 61.65C175.297 63.25 173.097 64.05 170.497 64.05C167.997 64.05 165.847 63.25 164.047 61.65C162.247 60.05 161.347 57.45 161.347 53.85ZM161.347 96.9C161.347 93.2 162.247 90.6 164.047 89.1C165.847 87.6 167.997 86.85 170.497 86.85C173.097 86.85 175.297 87.6 177.097 89.1C178.997 90.6 179.947 93.2 179.947 96.9C179.947 100.5 178.997 103.1 177.097 104.7C175.297 106.3 173.097 107.1 170.497 107.1C167.997 107.1 165.847 106.3 164.047 104.7C162.247 103.1 161.347 100.5 161.347 96.9ZM161.347 10.35C161.347 6.64999 162.247 4.04999 164.047 2.55C165.847 1.05 167.997 0.299998 170.497 0.299998C173.097 0.299998 175.297 1.05 177.097 2.55C178.997 4.04999 179.947 6.64999 179.947 10.35C179.947 13.95 178.997 16.55 177.097 18.15C175.297 19.75 173.097 20.55 170.497 20.55C167.997 20.55 165.847 19.75 164.047 18.15C162.247 16.55 161.347 13.95 161.347 10.35ZM201.484 53.85C201.484 50.15 202.384 47.55 204.184 46.05C205.984 44.55 208.134 43.8 210.634 43.8C213.234 43.8 215.434 44.55 217.234 46.05C219.134 47.55 220.084 50.15 220.084 53.85C220.084 57.45 219.134 60.05 217.234 61.65C215.434 63.25 213.234 64.05 210.634 64.05C208.134 64.05 205.984 63.25 204.184 61.65C202.384 60.05 201.484 57.45 201.484 53.85ZM201.484 96.9C201.484 93.2 202.384 90.6 204.184 89.1C205.984 87.6 208.134 86.85 210.634 86.85C213.234 86.85 215.434 87.6 217.234 89.1C219.134 90.6 220.084 93.2 220.084 96.9C220.084 100.5 219.134 103.1 217.234 104.7C215.434 106.3 213.234 107.1 210.634 107.1C208.134 107.1 205.984 106.3 204.184 104.7C202.384 103.1 201.484 100.5 201.484 96.9ZM201.484 10.35C201.484 6.64999 202.384 4.04999 204.184 2.55C205.984 1.05 208.134 0.299998 210.634 0.299998C213.234 0.299998 215.434 1.05 217.234 2.55C219.134 4.04999 220.084 6.64999 220.084 10.35C220.084 13.95 219.134 16.55 217.234 18.15C215.434 19.75 213.234 20.55 210.634 20.55C208.134 20.55 205.984 19.75 204.184 18.15C202.384 16.55 201.484 13.95 201.484 10.35ZM241.62 53.85C241.62 50.15 242.52 47.55 244.32 46.05C246.12 44.55 248.27 43.8 250.77 43.8C253.37 43.8 255.57 44.55 257.37 46.05C259.27 47.55 260.22 50.15 260.22 53.85C260.22 57.45 259.27 60.05 257.37 61.65C255.57 63.25 253.37 64.05 250.77 64.05C248.27 64.05 246.12 63.25 244.32 61.65C242.52 60.05 241.62 57.45 241.62 53.85ZM241.62 96.9C241.62 93.2 242.52 90.6 244.32 89.1C246.12 87.6 248.27 86.85 250.77 86.85C253.37 86.85 255.57 87.6 257.37 89.1C259.27 90.6 260.22 93.2 260.22 96.9C260.22 100.5 259.27 103.1 257.37 104.7C255.57 106.3 253.37 107.1 250.77 107.1C248.27 107.1 246.12 106.3 244.32 104.7C242.52 103.1 241.62 100.5 241.62 96.9ZM241.62 10.35C241.62 6.64999 242.52 4.04999 244.32 2.55C246.12 1.05 248.27 0.299998 250.77 0.299998C253.37 0.299998 255.57 1.05 257.37 2.55C259.27 4.04999 260.22 6.64999 260.22 10.35C260.22 13.95 259.27 16.55 257.37 18.15C255.57 19.75 253.37 20.55 250.77 20.55C248.27 20.55 246.12 19.75 244.32 18.15C242.52 16.55 241.62 13.95 241.62 10.35ZM281.757 53.85C281.757 50.15 282.657 47.55 284.457 46.05C286.257 44.55 288.407 43.8 290.907 43.8C293.507 43.8 295.707 44.55 297.507 46.05C299.407 47.55 300.357 50.15 300.357 53.85C300.357 57.45 299.407 60.05 297.507 61.65C295.707 63.25 293.507 64.05 290.907 64.05C288.407 64.05 286.257 63.25 284.457 61.65C282.657 60.05 281.757 57.45 281.757 53.85ZM281.757 96.9C281.757 93.2 282.657 90.6 284.457 89.1C286.257 87.6 288.407 86.85 290.907 86.85C293.507 86.85 295.707 87.6 297.507 89.1C299.407 90.6 300.357 93.2 300.357 96.9C300.357 100.5 299.407 103.1 297.507 104.7C295.707 106.3 293.507 107.1 290.907 107.1C288.407 107.1 286.257 106.3 284.457 104.7C282.657 103.1 281.757 100.5 281.757 96.9ZM281.757 10.35C281.757 6.64999 282.657 4.04999 284.457 2.55C286.257 1.05 288.407 0.299998 290.907 0.299998C293.507 0.299998 295.707 1.05 297.507 2.55C299.407 4.04999 300.357 6.64999 300.357 10.35C300.357 13.95 299.407 16.55 297.507 18.15C295.707 19.75 293.507 20.55 290.907 20.55C288.407 20.55 286.257 19.75 284.457 18.15C282.657 16.55 281.757 13.95 281.757 10.35ZM321.894 53.85C321.894 50.15 322.794 47.55 324.594 46.05C326.394 44.55 328.544 43.8 331.044 43.8C333.644 43.8 335.844 44.55 337.644 46.05C339.544 47.55 340.494 50.15 340.494 53.85C340.494 57.45 339.544 60.05 337.644 61.65C335.844 63.25 333.644 64.05 331.044 64.05C328.544 64.05 326.394 63.25 324.594 61.65C322.794 60.05 321.894 57.45 321.894 53.85ZM321.894 96.9C321.894 93.2 322.794 90.6 324.594 89.1C326.394 87.6 328.544 86.85 331.044 86.85C333.644 86.85 335.844 87.6 337.644 89.1C339.544 90.6 340.494 93.2 340.494 96.9C340.494 100.5 339.544 103.1 337.644 104.7C335.844 106.3 333.644 107.1 331.044 107.1C328.544 107.1 326.394 106.3 324.594 104.7C322.794 103.1 321.894 100.5 321.894 96.9ZM321.894 10.35C321.894 6.64999 322.794 4.04999 324.594 2.55C326.394 1.05 328.544 0.299998 331.044 0.299998C333.644 0.299998 335.844 1.05 337.644 2.55C339.544 4.04999 340.494 6.64999 340.494 10.35C340.494 13.95 339.544 16.55 337.644 18.15C335.844 19.75 333.644 20.55 331.044 20.55C328.544 20.55 326.394 19.75 324.594 18.15C322.794 16.55 321.894 13.95 321.894 10.35ZM362.03 53.85C362.03 50.15 362.93 47.55 364.73 46.05C366.53 44.55 368.68 43.8 371.18 43.8C373.78 43.8 375.98 44.55 377.78 46.05C379.68 47.55 380.63 50.15 380.63 53.85C380.63 57.45 379.68 60.05 377.78 61.65C375.98 63.25 373.78 64.05 371.18 64.05C368.68 64.05 366.53 63.25 364.73 61.65C362.93 60.05 362.03 57.45 362.03 53.85ZM362.03 96.9C362.03 93.2 362.93 90.6 364.73 89.1C366.53 87.6 368.68 86.85 371.18 86.85C373.78 86.85 375.98 87.6 377.78 89.1C379.68 90.6 380.63 93.2 380.63 96.9C380.63 100.5 379.68 103.1 377.78 104.7C375.98 106.3 373.78 107.1 371.18 107.1C368.68 107.1 366.53 106.3 364.73 104.7C362.93 103.1 362.03 100.5 362.03 96.9ZM362.03 10.35C362.03 6.64999 362.93 4.04999 364.73 2.55C366.53 1.05 368.68 0.299998 371.18 0.299998C373.78 0.299998 375.98 1.05 377.78 2.55C379.68 4.04999 380.63 6.64999 380.63 10.35C380.63 13.95 379.68 16.55 377.78 18.15C375.98 19.75 373.78 20.55 371.18 20.55C368.68 20.55 366.53 19.75 364.73 18.15C362.93 16.55 362.03 13.95 362.03 10.35ZM402.167 53.85C402.167 50.15 403.067 47.55 404.867 46.05C406.667 44.55 408.817 43.8 411.317 43.8C413.917 43.8 416.117 44.55 417.917 46.05C419.817 47.55 420.767 50.15 420.767 53.85C420.767 57.45 419.817 60.05 417.917 61.65C416.117 63.25 413.917 64.05 411.317 64.05C408.817 64.05 406.667 63.25 404.867 61.65C403.067 60.05 402.167 57.45 402.167 53.85ZM402.167 96.9C402.167 93.2 403.067 90.6 404.867 89.1C406.667 87.6 408.817 86.85 411.317 86.85C413.917 86.85 416.117 87.6 417.917 89.1C419.817 90.6 420.767 93.2 420.767 96.9C420.767 100.5 419.817 103.1 417.917 104.7C416.117 106.3 413.917 107.1 411.317 107.1C408.817 107.1 406.667 106.3 404.867 104.7C403.067 103.1 402.167 100.5 402.167 96.9ZM402.167 10.35C402.167 6.64999 403.067 4.04999 404.867 2.55C406.667 1.05 408.817 0.299998 411.317 0.299998C413.917 0.299998 416.117 1.05 417.917 2.55C419.817 4.04999 420.767 6.64999 420.767 10.35C420.767 13.95 419.817 16.55 417.917 18.15C416.117 19.75 413.917 20.55 411.317 20.55C408.817 20.55 406.667 19.75 404.867 18.15C403.067 16.55 402.167 13.95 402.167 10.35ZM442.304 53.85C442.304 50.15 443.204 47.55 445.004 46.05C446.804 44.55 448.954 43.8 451.454 43.8C454.054 43.8 456.254 44.55 458.054 46.05C459.954 47.55 460.904 50.15 460.904 53.85C460.904 57.45 459.954 60.05 458.054 61.65C456.254 63.25 454.054 64.05 451.454 64.05C448.954 64.05 446.804 63.25 445.004 61.65C443.204 60.05 442.304 57.45 442.304 53.85ZM442.304 96.9C442.304 93.2 443.204 90.6 445.004 89.1C446.804 87.6 448.954 86.85 451.454 86.85C454.054 86.85 456.254 87.6 458.054 89.1C459.954 90.6 460.904 93.2 460.904 96.9C460.904 100.5 459.954 103.1 458.054 104.7C456.254 106.3 454.054 107.1 451.454 107.1C448.954 107.1 446.804 106.3 445.004 104.7C443.204 103.1 442.304 100.5 442.304 96.9ZM442.304 10.35C442.304 6.64999 443.204 4.04999 445.004 2.55C446.804 1.05 448.954 0.299998 451.454 0.299998C454.054 0.299998 456.254 1.05 458.054 2.55C459.954 4.04999 460.904 6.64999 460.904 10.35C460.904 13.95 459.954 16.55 458.054 18.15C456.254 19.75 454.054 20.55 451.454 20.55C448.954 20.55 446.804 19.75 445.004 18.15C443.204 16.55 442.304 13.95 442.304 10.35ZM0.800001 183.85C0.800001 180.15 1.7 177.55 3.5 176.05C5.3 174.55 7.45 173.8 9.95 173.8C12.55 173.8 14.75 174.55 16.55 176.05C18.45 177.55 19.4 180.15 19.4 183.85C19.4 187.45 18.45 190.05 16.55 191.65C14.75 193.25 12.55 194.05 9.95 194.05C7.45 194.05 5.3 193.25 3.5 191.65C1.7 190.05 0.800001 187.45 0.800001 183.85ZM0.800001 226.9C0.800001 223.2 1.7 220.6 3.5 219.1C5.3 217.6 7.45 216.85 9.95 216.85C12.55 216.85 14.75 217.6 16.55 219.1C18.45 220.6 19.4 223.2 19.4 226.9C19.4 230.5 18.45 233.1 16.55 234.7C14.75 236.3 12.55 237.1 9.95 237.1C7.45 237.1 5.3 236.3 3.5 234.7C1.7 233.1 0.800001 230.5 0.800001 226.9ZM0.800001 140.35C0.800001 136.65 1.7 134.05 3.5 132.55C5.3 131.05 7.45 130.3 9.95 130.3C12.55 130.3 14.75 131.05 16.55 132.55C18.45 134.05 19.4 136.65 19.4 140.35C19.4 143.95 18.45 146.55 16.55 148.15C14.75 149.75 12.55 150.55 9.95 150.55C7.45 150.55 5.3 149.75 3.5 148.15C1.7 146.55 0.800001 143.95 0.800001 140.35ZM40.9367 183.85C40.9367 180.15 41.8367 177.55 43.6367 176.05C45.4367 174.55 47.5867 173.8 50.0867 173.8C52.6867 173.8 54.8867 174.55 56.6867 176.05C58.5867 177.55 59.5367 180.15 59.5367 183.85C59.5367 187.45 58.5867 190.05 56.6867 191.65C54.8867 193.25 52.6867 194.05 50.0867 194.05C47.5867 194.05 45.4367 193.25 43.6367 191.65C41.8367 190.05 40.9367 187.45 40.9367 183.85ZM40.9367 226.9C40.9367 223.2 41.8367 220.6 43.6367 219.1C45.4367 217.6 47.5867 216.85 50.0867 216.85C52.6867 216.85 54.8867 217.6 56.6867 219.1C58.5867 220.6 59.5367 223.2 59.5367 226.9C59.5367 230.5 58.5867 233.1 56.6867 234.7C54.8867 236.3 52.6867 237.1 50.0867 237.1C47.5867 237.1 45.4367 236.3 43.6367 234.7C41.8367 233.1 40.9367 230.5 40.9367 226.9ZM40.9367 140.35C40.9367 136.65 41.8367 134.05 43.6367 132.55C45.4367 131.05 47.5867 130.3 50.0867 130.3C52.6867 130.3 54.8867 131.05 56.6867 132.55C58.5867 134.05 59.5367 136.65 59.5367 140.35C59.5367 143.95 58.5867 146.55 56.6867 148.15C54.8867 149.75 52.6867 150.55 50.0867 150.55C47.5867 150.55 45.4367 149.75 43.6367 148.15C41.8367 146.55 40.9367 143.95 40.9367 140.35ZM81.0734 183.85C81.0734 180.15 81.9734 177.55 83.7734 176.05C85.5734 174.55 87.7234 173.8 90.2234 173.8C92.8234 173.8 95.0234 174.55 96.8234 176.05C98.7234 177.55 99.6734 180.15 99.6734 183.85C99.6734 187.45 98.7234 190.05 96.8234 191.65C95.0234 193.25 92.8234 194.05 90.2234 194.05C87.7234 194.05 85.5734 193.25 83.7734 191.65C81.9734 190.05 81.0734 187.45 81.0734 183.85ZM81.0734 226.9C81.0734 223.2 81.9734 220.6 83.7734 219.1C85.5734 217.6 87.7234 216.85 90.2234 216.85C92.8234 216.85 95.0234 217.6 96.8234 219.1C98.7234 220.6 99.6734 223.2 99.6734 226.9C99.6734 230.5 98.7234 233.1 96.8234 234.7C95.0234 236.3 92.8234 237.1 90.2234 237.1C87.7234 237.1 85.5734 236.3 83.7734 234.7C81.9734 233.1 81.0734 230.5 81.0734 226.9ZM81.0734 140.35C81.0734 136.65 81.9734 134.05 83.7734 132.55C85.5734 131.05 87.7234 130.3 90.2234 130.3C92.8234 130.3 95.0234 131.05 96.8234 132.55C98.7234 134.05 99.6734 136.65 99.6734 140.35C99.6734 143.95 98.7234 146.55 96.8234 148.15C95.0234 149.75 92.8234 150.55 90.2234 150.55C87.7234 150.55 85.5734 149.75 83.7734 148.15C81.9734 146.55 81.0734 143.95 81.0734 140.35ZM121.21 183.85C121.21 180.15 122.11 177.55 123.91 176.05C125.71 174.55 127.86 173.8 130.36 173.8C132.96 173.8 135.16 174.55 136.96 176.05C138.86 177.55 139.81 180.15 139.81 183.85C139.81 187.45 138.86 190.05 136.96 191.65C135.16 193.25 132.96 194.05 130.36 194.05C127.86 194.05 125.71 193.25 123.91 191.65C122.11 190.05 121.21 187.45 121.21 183.85ZM121.21 226.9C121.21 223.2 122.11 220.6 123.91 219.1C125.71 217.6 127.86 216.85 130.36 216.85C132.96 216.85 135.16 217.6 136.96 219.1C138.86 220.6 139.81 223.2 139.81 226.9C139.81 230.5 138.86 233.1 136.96 234.7C135.16 236.3 132.96 237.1 130.36 237.1C127.86 237.1 125.71 236.3 123.91 234.7C122.11 233.1 121.21 230.5 121.21 226.9ZM121.21 140.35C121.21 136.65 122.11 134.05 123.91 132.55C125.71 131.05 127.86 130.3 130.36 130.3C132.96 130.3 135.16 131.05 136.96 132.55C138.86 134.05 139.81 136.65 139.81 140.35C139.81 143.95 138.86 146.55 136.96 148.15C135.16 149.75 132.96 150.55 130.36 150.55C127.86 150.55 125.71 149.75 123.91 148.15C122.11 146.55 121.21 143.95 121.21 140.35ZM161.347 183.85C161.347 180.15 162.247 177.55 164.047 176.05C165.847 174.55 167.997 173.8 170.497 173.8C173.097 173.8 175.297 174.55 177.097 176.05C178.997 177.55 179.947 180.15 179.947 183.85C179.947 187.45 178.997 190.05 177.097 191.65C175.297 193.25 173.097 194.05 170.497 194.05C167.997 194.05 165.847 193.25 164.047 191.65C162.247 190.05 161.347 187.45 161.347 183.85ZM161.347 226.9C161.347 223.2 162.247 220.6 164.047 219.1C165.847 217.6 167.997 216.85 170.497 216.85C173.097 216.85 175.297 217.6 177.097 219.1C178.997 220.6 179.947 223.2 179.947 226.9C179.947 230.5 178.997 233.1 177.097 234.7C175.297 236.3 173.097 237.1 170.497 237.1C167.997 237.1 165.847 236.3 164.047 234.7C162.247 233.1 161.347 230.5 161.347 226.9ZM161.347 140.35C161.347 136.65 162.247 134.05 164.047 132.55C165.847 131.05 167.997 130.3 170.497 130.3C173.097 130.3 175.297 131.05 177.097 132.55C178.997 134.05 179.947 136.65 179.947 140.35C179.947 143.95 178.997 146.55 177.097 148.15C175.297 149.75 173.097 150.55 170.497 150.55C167.997 150.55 165.847 149.75 164.047 148.15C162.247 146.55 161.347 143.95 161.347 140.35ZM201.484 183.85C201.484 180.15 202.384 177.55 204.184 176.05C205.984 174.55 208.134 173.8 210.634 173.8C213.234 173.8 215.434 174.55 217.234 176.05C219.134 177.55 220.084 180.15 220.084 183.85C220.084 187.45 219.134 190.05 217.234 191.65C215.434 193.25 213.234 194.05 210.634 194.05C208.134 194.05 205.984 193.25 204.184 191.65C202.384 190.05 201.484 187.45 201.484 183.85ZM201.484 226.9C201.484 223.2 202.384 220.6 204.184 219.1C205.984 217.6 208.134 216.85 210.634 216.85C213.234 216.85 215.434 217.6 217.234 219.1C219.134 220.6 220.084 223.2 220.084 226.9C220.084 230.5 219.134 233.1 217.234 234.7C215.434 236.3 213.234 237.1 210.634 237.1C208.134 237.1 205.984 236.3 204.184 234.7C202.384 233.1 201.484 230.5 201.484 226.9ZM201.484 140.35C201.484 136.65 202.384 134.05 204.184 132.55C205.984 131.05 208.134 130.3 210.634 130.3C213.234 130.3 215.434 131.05 217.234 132.55C219.134 134.05 220.084 136.65 220.084 140.35C220.084 143.95 219.134 146.55 217.234 148.15C215.434 149.75 213.234 150.55 210.634 150.55C208.134 150.55 205.984 149.75 204.184 148.15C202.384 146.55 201.484 143.95 201.484 140.35ZM241.62 183.85C241.62 180.15 242.52 177.55 244.32 176.05C246.12 174.55 248.27 173.8 250.77 173.8C253.37 173.8 255.57 174.55 257.37 176.05C259.27 177.55 260.22 180.15 260.22 183.85C260.22 187.45 259.27 190.05 257.37 191.65C255.57 193.25 253.37 194.05 250.77 194.05C248.27 194.05 246.12 193.25 244.32 191.65C242.52 190.05 241.62 187.45 241.62 183.85ZM241.62 226.9C241.62 223.2 242.52 220.6 244.32 219.1C246.12 217.6 248.27 216.85 250.77 216.85C253.37 216.85 255.57 217.6 257.37 219.1C259.27 220.6 260.22 223.2 260.22 226.9C260.22 230.5 259.27 233.1 257.37 234.7C255.57 236.3 253.37 237.1 250.77 237.1C248.27 237.1 246.12 236.3 244.32 234.7C242.52 233.1 241.62 230.5 241.62 226.9ZM241.62 140.35C241.62 136.65 242.52 134.05 244.32 132.55C246.12 131.05 248.27 130.3 250.77 130.3C253.37 130.3 255.57 131.05 257.37 132.55C259.27 134.05 260.22 136.65 260.22 140.35C260.22 143.95 259.27 146.55 257.37 148.15C255.57 149.75 253.37 150.55 250.77 150.55C248.27 150.55 246.12 149.75 244.32 148.15C242.52 146.55 241.62 143.95 241.62 140.35ZM281.757 183.85C281.757 180.15 282.657 177.55 284.457 176.05C286.257 174.55 288.407 173.8 290.907 173.8C293.507 173.8 295.707 174.55 297.507 176.05C299.407 177.55 300.357 180.15 300.357 183.85C300.357 187.45 299.407 190.05 297.507 191.65C295.707 193.25 293.507 194.05 290.907 194.05C288.407 194.05 286.257 193.25 284.457 191.65C282.657 190.05 281.757 187.45 281.757 183.85ZM281.757 226.9C281.757 223.2 282.657 220.6 284.457 219.1C286.257 217.6 288.407 216.85 290.907 216.85C293.507 216.85 295.707 217.6 297.507 219.1C299.407 220.6 300.357 223.2 300.357 226.9C300.357 230.5 299.407 233.1 297.507 234.7C295.707 236.3 293.507 237.1 290.907 237.1C288.407 237.1 286.257 236.3 284.457 234.7C282.657 233.1 281.757 230.5 281.757 226.9ZM281.757 140.35C281.757 136.65 282.657 134.05 284.457 132.55C286.257 131.05 288.407 130.3 290.907 130.3C293.507 130.3 295.707 131.05 297.507 132.55C299.407 134.05 300.357 136.65 300.357 140.35C300.357 143.95 299.407 146.55 297.507 148.15C295.707 149.75 293.507 150.55 290.907 150.55C288.407 150.55 286.257 149.75 284.457 148.15C282.657 146.55 281.757 143.95 281.757 140.35ZM321.894 183.85C321.894 180.15 322.794 177.55 324.594 176.05C326.394 174.55 328.544 173.8 331.044 173.8C333.644 173.8 335.844 174.55 337.644 176.05C339.544 177.55 340.494 180.15 340.494 183.85C340.494 187.45 339.544 190.05 337.644 191.65C335.844 193.25 333.644 194.05 331.044 194.05C328.544 194.05 326.394 193.25 324.594 191.65C322.794 190.05 321.894 187.45 321.894 183.85ZM321.894 226.9C321.894 223.2 322.794 220.6 324.594 219.1C326.394 217.6 328.544 216.85 331.044 216.85C333.644 216.85 335.844 217.6 337.644 219.1C339.544 220.6 340.494 223.2 340.494 226.9C340.494 230.5 339.544 233.1 337.644 234.7C335.844 236.3 333.644 237.1 331.044 237.1C328.544 237.1 326.394 236.3 324.594 234.7C322.794 233.1 321.894 230.5 321.894 226.9ZM321.894 140.35C321.894 136.65 322.794 134.05 324.594 132.55C326.394 131.05 328.544 130.3 331.044 130.3C333.644 130.3 335.844 131.05 337.644 132.55C339.544 134.05 340.494 136.65 340.494 140.35C340.494 143.95 339.544 146.55 337.644 148.15C335.844 149.75 333.644 150.55 331.044 150.55C328.544 150.55 326.394 149.75 324.594 148.15C322.794 146.55 321.894 143.95 321.894 140.35ZM362.03 183.85C362.03 180.15 362.93 177.55 364.73 176.05C366.53 174.55 368.68 173.8 371.18 173.8C373.78 173.8 375.98 174.55 377.78 176.05C379.68 177.55 380.63 180.15 380.63 183.85C380.63 187.45 379.68 190.05 377.78 191.65C375.98 193.25 373.78 194.05 371.18 194.05C368.68 194.05 366.53 193.25 364.73 191.65C362.93 190.05 362.03 187.45 362.03 183.85ZM362.03 226.9C362.03 223.2 362.93 220.6 364.73 219.1C366.53 217.6 368.68 216.85 371.18 216.85C373.78 216.85 375.98 217.6 377.78 219.1C379.68 220.6 380.63 223.2 380.63 226.9C380.63 230.5 379.68 233.1 377.78 234.7C375.98 236.3 373.78 237.1 371.18 237.1C368.68 237.1 366.53 236.3 364.73 234.7C362.93 233.1 362.03 230.5 362.03 226.9ZM362.03 140.35C362.03 136.65 362.93 134.05 364.73 132.55C366.53 131.05 368.68 130.3 371.18 130.3C373.78 130.3 375.98 131.05 377.78 132.55C379.68 134.05 380.63 136.65 380.63 140.35C380.63 143.95 379.68 146.55 377.78 148.15C375.98 149.75 373.78 150.55 371.18 150.55C368.68 150.55 366.53 149.75 364.73 148.15C362.93 146.55 362.03 143.95 362.03 140.35ZM402.167 183.85C402.167 180.15 403.067 177.55 404.867 176.05C406.667 174.55 408.817 173.8 411.317 173.8C413.917 173.8 416.117 174.55 417.917 176.05C419.817 177.55 420.767 180.15 420.767 183.85C420.767 187.45 419.817 190.05 417.917 191.65C416.117 193.25 413.917 194.05 411.317 194.05C408.817 194.05 406.667 193.25 404.867 191.65C403.067 190.05 402.167 187.45 402.167 183.85ZM402.167 226.9C402.167 223.2 403.067 220.6 404.867 219.1C406.667 217.6 408.817 216.85 411.317 216.85C413.917 216.85 416.117 217.6 417.917 219.1C419.817 220.6 420.767 223.2 420.767 226.9C420.767 230.5 419.817 233.1 417.917 234.7C416.117 236.3 413.917 237.1 411.317 237.1C408.817 237.1 406.667 236.3 404.867 234.7C403.067 233.1 402.167 230.5 402.167 226.9ZM402.167 140.35C402.167 136.65 403.067 134.05 404.867 132.55C406.667 131.05 408.817 130.3 411.317 130.3C413.917 130.3 416.117 131.05 417.917 132.55C419.817 134.05 420.767 136.65 420.767 140.35C420.767 143.95 419.817 146.55 417.917 148.15C416.117 149.75 413.917 150.55 411.317 150.55C408.817 150.55 406.667 149.75 404.867 148.15C403.067 146.55 402.167 143.95 402.167 140.35ZM442.304 183.85C442.304 180.15 443.204 177.55 445.004 176.05C446.804 174.55 448.954 173.8 451.454 173.8C454.054 173.8 456.254 174.55 458.054 176.05C459.954 177.55 460.904 180.15 460.904 183.85C460.904 187.45 459.954 190.05 458.054 191.65C456.254 193.25 454.054 194.05 451.454 194.05C448.954 194.05 446.804 193.25 445.004 191.65C443.204 190.05 442.304 187.45 442.304 183.85ZM442.304 226.9C442.304 223.2 443.204 220.6 445.004 219.1C446.804 217.6 448.954 216.85 451.454 216.85C454.054 216.85 456.254 217.6 458.054 219.1C459.954 220.6 460.904 223.2 460.904 226.9C460.904 230.5 459.954 233.1 458.054 234.7C456.254 236.3 454.054 237.1 451.454 237.1C448.954 237.1 446.804 236.3 445.004 234.7C443.204 233.1 442.304 230.5 442.304 226.9ZM442.304 140.35C442.304 136.65 443.204 134.05 445.004 132.55C446.804 131.05 448.954 130.3 451.454 130.3C454.054 130.3 456.254 131.05 458.054 132.55C459.954 134.05 460.904 136.65 460.904 140.35C460.904 143.95 459.954 146.55 458.054 148.15C456.254 149.75 454.054 150.55 451.454 150.55C448.954 150.55 446.804 149.75 445.004 148.15C443.204 146.55 442.304 143.95 442.304 140.35Z" fill="white"/>
</svg>
