<svg width="130" height="198" viewBox="0 0 130 198" fill="none" xmlns="http://www.w3.org/2000/svg">
<mask id="path-1-outside-1_335_18" maskUnits="userSpaceOnUse" x="-70" y="-2" width="202" height="202" fill="black">
<rect fill="white" x="-70" y="-2" width="202" height="202"/>
<path d="M129.328 99.0781C129.328 89.8333 128.189 80.9792 125.91 72.5156C123.566 64.0521 120.311 56.1745 116.145 48.8828C111.913 41.526 106.835 34.8854 100.91 28.9609C94.9206 23.0365 88.2799 17.9583 80.9883 13.7266C73.6966 9.49479 65.8516 6.23958 57.4531 3.96094C48.9896 1.68229 40.1354 0.542969 30.8906 0.542969C21.6458 0.542969 12.7917 1.68229 4.32812 3.96094C-4.13542 6.23958 -12.013 9.49479 -19.3047 13.7266C-26.5964 17.9583 -33.2044 23.0365 -39.1289 28.9609C-45.1185 34.8854 -50.2292 41.526 -54.4609 48.8828C-58.6927 56.1745 -61.9479 64.0521 -64.2266 72.5156C-66.5703 80.9792 -67.7422 89.8333 -67.7422 99.0781C-67.7422 108.323 -66.5703 117.177 -64.2266 125.641C-61.9479 134.104 -58.6927 141.982 -54.4609 149.273C-50.2292 156.565 -45.1185 163.173 -39.1289 169.098C-33.2044 175.022 -26.5964 180.068 -19.3047 184.234C-12.013 188.466 -4.13542 191.721 4.32812 194C12.7917 196.279 21.6458 197.418 30.8906 197.418C40.1354 197.418 48.9896 196.279 57.4531 194C65.8516 191.721 73.6966 188.466 80.9883 184.234C88.2799 180.068 94.9206 175.022 100.91 169.098C106.835 163.173 111.913 156.565 116.145 149.273C120.311 141.982 123.566 134.104 125.91 125.641C128.189 117.177 129.328 108.323 129.328 99.0781ZM117.219 99.0781C117.219 107.346 116.177 115.224 114.094 122.711C112.01 130.133 109.081 137.034 105.305 143.414C101.529 149.794 97.0039 155.589 91.7305 160.797C86.3919 165.94 80.5326 170.335 74.1523 173.98C67.7721 177.626 60.9362 180.426 53.6445 182.379C46.2878 184.397 38.7031 185.406 30.8906 185.406C23.0781 185.406 15.526 184.397 8.23438 182.379C0.877604 180.426 -5.99089 177.626 -12.3711 173.98C-18.8164 170.335 -24.6758 165.94 -29.9492 160.797C-35.2878 155.589 -39.8451 149.794 -43.6211 143.414C-47.4622 137.034 -50.4245 130.1 -52.5078 122.613C-54.5911 115.126 -55.6328 107.281 -55.6328 99.0781C-55.6328 90.875 -54.5911 83.0299 -52.5078 75.543C-50.4245 68.056 -47.4948 61.1224 -43.7188 54.7422C-39.9427 48.2969 -35.418 42.5026 -30.1445 37.3594C-24.8711 32.151 -19.0117 27.724 -12.5664 24.0781C-6.1862 20.4323 0.682292 17.6328 8.03906 15.6797C15.3958 13.6615 23.013 12.6523 30.8906 12.6523C38.8333 12.6523 46.4831 13.6615 53.8398 15.6797C61.1315 17.6328 67.9674 20.4323 74.3477 24.0781C80.7279 27.724 86.5547 32.151 91.8281 37.3594C97.1016 42.5026 101.626 48.2969 105.402 54.7422C109.178 61.1224 112.108 68.056 114.191 75.543C116.21 83.0299 117.219 90.875 117.219 99.0781Z"/>
</mask>
<path d="M129.328 99.0781C129.328 89.8333 128.189 80.9792 125.91 72.5156C123.566 64.0521 120.311 56.1745 116.145 48.8828C111.913 41.526 106.835 34.8854 100.91 28.9609C94.9206 23.0365 88.2799 17.9583 80.9883 13.7266C73.6966 9.49479 65.8516 6.23958 57.4531 3.96094C48.9896 1.68229 40.1354 0.542969 30.8906 0.542969C21.6458 0.542969 12.7917 1.68229 4.32812 3.96094C-4.13542 6.23958 -12.013 9.49479 -19.3047 13.7266C-26.5964 17.9583 -33.2044 23.0365 -39.1289 28.9609C-45.1185 34.8854 -50.2292 41.526 -54.4609 48.8828C-58.6927 56.1745 -61.9479 64.0521 -64.2266 72.5156C-66.5703 80.9792 -67.7422 89.8333 -67.7422 99.0781C-67.7422 108.323 -66.5703 117.177 -64.2266 125.641C-61.9479 134.104 -58.6927 141.982 -54.4609 149.273C-50.2292 156.565 -45.1185 163.173 -39.1289 169.098C-33.2044 175.022 -26.5964 180.068 -19.3047 184.234C-12.013 188.466 -4.13542 191.721 4.32812 194C12.7917 196.279 21.6458 197.418 30.8906 197.418C40.1354 197.418 48.9896 196.279 57.4531 194C65.8516 191.721 73.6966 188.466 80.9883 184.234C88.2799 180.068 94.9206 175.022 100.91 169.098C106.835 163.173 111.913 156.565 116.145 149.273C120.311 141.982 123.566 134.104 125.91 125.641C128.189 117.177 129.328 108.323 129.328 99.0781ZM117.219 99.0781C117.219 107.346 116.177 115.224 114.094 122.711C112.01 130.133 109.081 137.034 105.305 143.414C101.529 149.794 97.0039 155.589 91.7305 160.797C86.3919 165.94 80.5326 170.335 74.1523 173.98C67.7721 177.626 60.9362 180.426 53.6445 182.379C46.2878 184.397 38.7031 185.406 30.8906 185.406C23.0781 185.406 15.526 184.397 8.23438 182.379C0.877604 180.426 -5.99089 177.626 -12.3711 173.98C-18.8164 170.335 -24.6758 165.94 -29.9492 160.797C-35.2878 155.589 -39.8451 149.794 -43.6211 143.414C-47.4622 137.034 -50.4245 130.1 -52.5078 122.613C-54.5911 115.126 -55.6328 107.281 -55.6328 99.0781C-55.6328 90.875 -54.5911 83.0299 -52.5078 75.543C-50.4245 68.056 -47.4948 61.1224 -43.7188 54.7422C-39.9427 48.2969 -35.418 42.5026 -30.1445 37.3594C-24.8711 32.151 -19.0117 27.724 -12.5664 24.0781C-6.1862 20.4323 0.682292 17.6328 8.03906 15.6797C15.3958 13.6615 23.013 12.6523 30.8906 12.6523C38.8333 12.6523 46.4831 13.6615 53.8398 15.6797C61.1315 17.6328 67.9674 20.4323 74.3477 24.0781C80.7279 27.724 86.5547 32.151 91.8281 37.3594C97.1016 42.5026 101.626 48.2969 105.402 54.7422C109.178 61.1224 112.108 68.056 114.191 75.543C116.21 83.0299 117.219 90.875 117.219 99.0781Z" fill="#CF1259"/>
<path d="M125.91 72.5156L127.838 71.9819L127.84 71.9888L127.841 71.9957L125.91 72.5156ZM116.145 48.8828L117.878 47.8856L117.881 47.8905L116.145 48.8828ZM100.91 28.9609L102.317 27.539L102.324 27.5467L100.91 28.9609ZM57.4531 3.96094L57.9731 2.0297L57.9768 2.03072L57.4531 3.96094ZM-39.1289 28.9609L-37.7147 30.3752L-37.7224 30.3829L-39.1289 28.9609ZM-54.4609 48.8828L-52.7273 49.8801L-52.7311 49.8867L-54.4609 48.8828ZM-64.2266 72.5156L-62.2953 73.0356L-62.2972 73.0425L-62.2991 73.0494L-64.2266 72.5156ZM-64.2266 125.641L-62.2991 125.107L-62.2972 125.114L-62.2953 125.121L-64.2266 125.641ZM-54.4609 149.273L-52.7311 148.27L-54.4609 149.273ZM-39.1289 169.098L-37.7224 167.676L-37.7147 167.683L-39.1289 169.098ZM-19.3047 184.234L-18.3124 182.498L-18.3008 182.505L-19.3047 184.234ZM57.4531 194L57.9768 195.93L57.9731 195.931L57.4531 194ZM80.9883 184.234L79.9844 182.505L79.996 182.498L80.9883 184.234ZM100.91 169.098L102.324 170.512L102.317 170.52L100.91 169.098ZM116.145 149.273L117.881 150.266L117.874 150.277L116.145 149.273ZM125.91 125.641L127.841 126.161L127.84 126.167L127.838 126.174L125.91 125.641ZM114.094 122.711L116.021 123.247L116.019 123.251L114.094 122.711ZM91.7305 160.797L93.1359 162.22L93.127 162.229L93.1181 162.237L91.7305 160.797ZM74.1523 173.98L75.1446 175.717L74.1523 173.98ZM53.6445 182.379L53.1154 180.45L53.1271 180.447L53.6445 182.379ZM8.23438 182.379L8.74757 180.446L8.75774 180.449L8.76788 180.451L8.23438 182.379ZM-12.3711 173.98L-11.3864 172.24L-11.3788 172.244L-12.3711 173.98ZM-29.9492 160.797L-31.3456 162.229L-31.3459 162.228L-29.9492 160.797ZM-43.6211 143.414L-41.9077 142.383L-41.9038 142.389L-41.8999 142.395L-43.6211 143.414ZM-52.5078 122.613L-50.581 122.077L-52.5078 122.613ZM-52.5078 75.543L-50.581 76.0791L-52.5078 75.543ZM-43.7188 54.7422L-41.9931 55.7532L-41.9976 55.7608L-43.7188 54.7422ZM-30.1445 37.3594L-28.7391 38.7824L-28.7481 38.7912L-30.1445 37.3594ZM-12.5664 24.0781L-11.5741 25.8146L-11.5817 25.8189L-12.5664 24.0781ZM8.03906 15.6797L8.56819 17.6084L8.56023 17.6106L8.55226 17.6127L8.03906 15.6797ZM53.8398 15.6797L53.3224 17.6116L53.3107 17.6084L53.8398 15.6797ZM74.3477 24.0781L75.3399 22.3416L74.3477 24.0781ZM91.8281 37.3594L90.4317 38.7912L90.4227 38.7823L91.8281 37.3594ZM105.402 54.7422L103.681 55.7608L103.677 55.7532L105.402 54.7422ZM114.191 75.543L116.118 75.0068L116.12 75.0146L116.122 75.0224L114.191 75.543ZM127.328 99.0781C127.328 89.9993 126.209 81.3205 123.979 73.0356L127.841 71.9957C130.168 80.6378 131.328 89.6674 131.328 99.0781H127.328ZM123.983 73.0494C121.681 64.7387 118.489 57.016 114.408 49.8751L117.881 47.8905C122.134 55.333 125.452 63.3655 127.838 71.9819L123.983 73.0494ZM114.411 49.88C110.266 42.6737 105.294 36.1737 99.4959 30.3752L102.324 27.5467C108.375 33.5972 113.56 40.3784 117.878 47.8856L114.411 49.88ZM99.5037 30.3829C93.6348 24.5777 87.1295 19.6031 79.9844 15.4564L81.9922 11.9968C89.4304 16.3136 96.2064 21.4952 102.317 27.539L99.5037 30.3829ZM79.9844 15.4564C72.8482 11.3148 65.1652 8.12566 56.9294 5.89116L57.9768 2.03072C66.5379 4.3535 74.5451 7.67478 81.9922 11.9968L79.9844 15.4564ZM56.9332 5.89217C48.6482 3.6616 39.9694 2.54297 30.8906 2.54297V-1.45703C40.3014 -1.45703 49.331 -0.29702 57.9731 2.02971L56.9332 5.89217ZM30.8906 2.54297C21.8118 2.54297 13.133 3.6616 4.84807 5.89217L3.80818 2.02971C12.4503 -0.29702 21.4799 -1.45703 30.8906 -1.45703V2.54297ZM4.84807 5.89217C-3.45276 8.12701 -11.1668 11.3161 -18.3008 15.4564L-20.3086 11.9968C-12.8592 7.67347 -4.81808 4.35216 3.80818 2.02971L4.84807 5.89217ZM-18.3008 15.4564C-25.4435 19.6017 -31.9135 24.574 -37.7147 30.3752L-40.5431 27.5467C-34.4953 21.499 -27.7492 16.315 -20.3086 11.9968L-18.3008 15.4564ZM-37.7224 30.3829C-43.5835 36.1802 -48.5844 42.6777 -52.7273 49.88L-56.1946 47.8856C-51.874 40.3744 -46.6535 33.5907 -40.5354 27.539L-37.7224 30.3829ZM-52.7311 49.8867C-56.8714 57.0207 -60.0605 64.7347 -62.2953 73.0356L-66.1578 71.9957C-63.8353 63.3694 -60.514 55.3283 -56.1907 47.8789L-52.7311 49.8867ZM-62.2991 73.0494C-64.5922 81.3302 -65.7422 90.0042 -65.7422 99.0781H-69.7422C-69.7422 89.6625 -68.5484 80.6282 -66.154 71.9819L-62.2991 73.0494ZM-65.7422 99.0781C-65.7422 108.152 -64.5922 116.826 -62.2991 125.107L-66.154 126.174C-68.5484 117.528 -69.7422 108.494 -69.7422 99.0781H-65.7422ZM-62.2953 125.121C-60.0605 133.422 -56.8714 141.136 -52.7311 148.27L-56.1907 150.277C-60.514 142.828 -63.8353 134.787 -66.1578 126.161L-62.2953 125.121ZM-52.7311 148.27C-48.5881 155.408 -43.5861 161.876 -37.7224 167.676L-40.5354 170.52C-46.6508 164.471 -51.8702 157.722 -56.1907 150.277L-52.7311 148.27ZM-37.7147 167.683C-31.9162 173.482 -25.4501 178.419 -18.3124 182.498L-20.297 185.971C-27.7426 181.716 -34.4926 176.562 -40.5431 170.512L-37.7147 167.683ZM-18.3008 182.505C-11.1668 186.645 -3.45276 189.834 4.84807 192.069L3.80818 195.931C-4.81808 193.609 -12.8592 190.287 -20.3086 185.964L-18.3008 182.505ZM4.84807 192.069C13.133 194.299 21.8118 195.418 30.8906 195.418V199.418C21.4799 199.418 12.4503 198.258 3.80818 195.931L4.84807 192.069ZM30.8906 195.418C39.9694 195.418 48.6482 194.299 56.9332 192.069L57.9731 195.931C49.331 198.258 40.3014 199.418 30.8906 199.418V195.418ZM56.9294 192.07C65.1652 189.835 72.8482 186.646 79.9844 182.505L81.9922 185.964C74.5451 190.286 66.5379 193.607 57.9768 195.93L56.9294 192.07ZM79.996 182.498C87.136 178.418 93.6375 173.478 99.5037 167.676L102.317 170.52C96.2037 176.566 89.4239 181.718 81.9806 185.971L79.996 182.498ZM99.4959 167.683C105.297 161.882 110.269 155.412 114.415 148.27L117.874 150.277C113.556 157.718 108.372 164.464 102.324 170.512L99.4959 167.683ZM114.408 148.281C118.489 141.14 121.681 133.418 123.983 125.107L127.838 126.174C125.452 134.791 122.134 142.823 117.881 150.266L114.408 148.281ZM123.979 125.121C126.209 116.836 127.328 108.157 127.328 99.0781H131.328C131.328 108.489 130.168 117.518 127.841 126.161L123.979 125.121ZM119.219 99.0781C119.219 107.516 118.155 115.575 116.021 123.247L112.167 122.175C114.199 114.873 115.219 107.177 115.219 99.0781H119.219ZM116.019 123.251C113.891 130.834 110.894 137.897 107.026 144.433L103.584 142.395C107.267 136.171 110.13 129.431 112.168 122.17L116.019 123.251ZM107.026 144.433C103.162 150.961 98.5315 156.891 93.1359 162.22L90.3251 159.374C95.4763 154.286 99.8949 148.628 103.584 142.395L107.026 144.433ZM93.1181 162.237C87.6616 167.494 81.6696 171.988 75.1446 175.717L73.1601 172.244C79.3955 168.681 85.1223 164.386 90.3428 159.357L93.1181 162.237ZM75.1446 175.717C68.6112 179.45 61.6151 182.314 54.162 184.311L53.1271 180.447C60.2573 178.537 66.9331 175.802 73.1601 172.244L75.1446 175.717ZM54.1737 184.308C46.6404 186.374 38.8775 187.406 30.8906 187.406V183.406C38.5287 183.406 45.9352 182.42 53.1154 180.45L54.1737 184.308ZM30.8906 187.406C22.9037 187.406 15.1719 186.374 7.70087 184.306L8.76788 180.451C15.8802 182.42 23.2525 183.406 30.8906 183.406V187.406ZM7.72118 184.312C0.202896 182.316 -6.82735 179.452 -13.3634 175.717L-11.3788 172.244C-5.15442 175.801 1.55231 178.536 8.74757 180.446L7.72118 184.312ZM-13.3558 175.721C-19.9503 171.991 -25.9482 167.493 -31.3456 162.229L-28.5528 159.365C-23.4034 164.387 -17.6825 168.678 -11.3864 172.24L-13.3558 175.721ZM-31.3459 162.228C-36.8095 156.898 -41.4761 150.965 -45.3423 144.433L-41.8999 142.395C-38.214 148.623 -33.766 154.279 -28.5526 159.365L-31.3459 162.228ZM-45.3345 144.446C-49.2728 137.904 -52.305 130.803 -54.4346 123.149L-50.581 122.077C-48.544 129.398 -45.6517 136.164 -41.9077 142.383L-45.3345 144.446ZM-54.4346 123.149C-56.5691 115.478 -57.6328 107.452 -57.6328 99.0781H-53.6328C-53.6328 107.11 -52.6131 114.774 -50.581 122.077L-54.4346 123.149ZM-57.6328 99.0781C-57.6328 90.7039 -56.5691 82.6778 -54.4346 75.0068L-50.581 76.0791C-52.6131 83.3821 -53.6328 91.0461 -53.6328 99.0781H-57.6328ZM-54.4346 75.0068C-52.3065 67.3588 -49.3096 60.262 -45.4399 53.7235L-41.9976 55.7608C-45.68 61.9828 -48.5425 68.7531 -50.581 76.0791L-54.4346 75.0068ZM-45.4444 53.7312C-41.5792 47.1337 -36.9443 41.1975 -31.541 35.9276L-28.7481 38.7912C-33.8917 43.8077 -38.3062 49.46 -41.9931 55.7532L-45.4444 53.7312ZM-31.5499 35.9364C-26.151 30.6041 -20.1502 26.0702 -13.5511 22.3373L-11.5817 25.8189C-17.8732 29.3778 -23.5912 33.6979 -28.7391 38.7823L-31.5499 35.9364ZM-13.5587 22.3416C-7.02266 18.6068 0.00758362 15.7427 7.52586 13.7467L8.55226 17.6127C1.35699 19.523 -5.34973 22.2578 -11.5741 25.8146L-13.5587 22.3416ZM7.50993 13.7509C15.0447 11.6839 22.8401 10.6523 30.8906 10.6523V14.6523C23.1859 14.6523 15.747 15.639 8.56819 17.6084L7.50993 13.7509ZM30.8906 10.6523C39.0047 10.6523 46.8328 11.6835 54.369 13.7509L53.3107 17.6084C46.1333 15.6394 38.6619 14.6523 30.8906 14.6523V10.6523ZM54.3573 13.7478C61.8104 15.7442 68.8065 18.6082 75.3399 22.3416L73.3554 25.8146C67.1284 22.2563 60.4526 19.5215 53.3224 17.6116L54.3573 13.7478ZM75.3399 22.3416C81.8722 26.0744 87.8377 30.6071 93.2335 35.9364L90.4227 38.7823C85.2717 33.6949 79.5835 29.3736 73.3554 25.8146L75.3399 22.3416ZM93.2246 35.9276C98.6279 41.1975 103.263 47.1337 107.128 53.7312L103.677 55.7532C99.9898 49.46 95.5753 43.8077 90.4317 38.7912L93.2246 35.9276ZM107.123 53.7235C110.993 60.262 113.99 67.3588 116.118 75.0068L112.265 76.0791C110.226 68.7531 107.364 61.9828 103.681 55.7608L107.123 53.7235ZM116.122 75.0224C118.189 82.6887 119.219 90.7094 119.219 99.0781H115.219C115.219 91.0406 114.23 83.3712 112.26 76.0635L116.122 75.0224Z" fill="#FEFCFD" mask="url(#path-1-outside-1_335_18)"/>
</svg>
