<svg width="247" height="247" viewBox="0 0 247 247" fill="none" xmlns="http://www.w3.org/2000/svg">
<path d="M0.0898438 123.598C0.0898438 112.042 1.514 100.974 4.3623 90.3945C7.29199 79.8151 11.361 69.9681 16.5693 60.8535C21.859 51.6576 28.2067 43.3568 35.6123 35.9512C43.0993 28.5456 51.4001 22.1979 60.5146 16.9082C69.6292 11.6185 79.4355 7.54948 89.9336 4.70117C100.513 1.85286 111.581 0.428711 123.137 0.428711C134.693 0.428711 145.76 1.85286 156.34 4.70117C166.919 7.54948 176.766 11.6185 185.881 16.9082C194.995 22.1979 203.256 28.5456 210.661 35.9512C218.148 43.3568 224.536 51.6576 229.826 60.8535C235.116 69.9681 239.185 79.8151 242.033 90.3945C244.963 100.974 246.428 112.042 246.428 123.598C246.428 135.154 244.963 146.221 242.033 156.801C239.185 167.38 235.116 177.227 229.826 186.342C224.536 195.456 218.148 203.716 210.661 211.122C203.256 218.528 194.995 224.835 185.881 230.043C176.766 235.333 166.919 239.402 156.34 242.25C145.76 245.098 134.693 246.522 123.137 246.522C111.581 246.522 100.513 245.098 89.9336 242.25C79.4355 239.402 69.6292 235.333 60.5146 230.043C51.4001 224.835 43.0993 218.528 35.6123 211.122C28.2067 203.716 21.859 195.456 16.5693 186.342C11.361 177.227 7.29199 167.38 4.3623 156.801C1.514 146.221 0.0898438 135.154 0.0898438 123.598ZM15.2266 123.598C15.2266 133.933 16.5286 143.78 19.1328 153.139C21.737 162.416 25.3991 171.042 30.1191 179.018C34.8392 186.993 40.4951 194.236 47.0869 200.746C53.7601 207.175 61.0843 212.668 69.0596 217.226C77.0348 221.783 85.5798 225.282 94.6943 227.724C103.89 230.246 113.371 231.508 123.137 231.508C132.902 231.508 142.342 230.246 151.457 227.724C160.653 225.282 169.239 221.783 177.214 217.226C185.271 212.668 192.595 207.175 199.187 200.746C205.86 194.236 211.556 186.993 216.276 179.018C221.078 171.042 224.781 162.375 227.385 153.017C229.989 143.658 231.291 133.852 231.291 123.598C231.291 113.344 229.989 103.537 227.385 94.1787C224.781 84.82 221.118 76.153 216.398 68.1777C211.678 60.1211 206.022 52.8783 199.431 46.4492C192.839 39.9388 185.515 34.4049 177.458 29.8477C169.483 25.2904 160.897 21.791 151.701 19.3496C142.505 16.8268 132.984 15.5654 123.137 15.5654C113.208 15.5654 103.646 16.8268 94.4502 19.3496C85.3356 21.791 76.7907 25.2904 68.8154 29.8477C60.8402 34.4049 53.5566 39.9388 46.9648 46.4492C40.373 52.8783 34.7171 60.1211 29.9971 68.1777C25.277 76.153 21.6149 84.82 19.0107 94.1787C16.488 103.537 15.2266 113.344 15.2266 123.598Z" fill="#7161EF"/>
<path d="M4.3623 90.3945L-0.456345 89.0601L-0.461121 89.0774L-0.465775 89.0947L4.3623 90.3945ZM16.5693 60.8535L12.2352 58.3604L12.2317 58.3666L12.2281 58.3728L16.5693 60.8535ZM35.6123 35.9512L32.0961 32.3964L32.0864 32.406L32.0768 32.4156L35.6123 35.9512ZM89.9336 4.70117L88.6337 -0.126915L88.6243 -0.124371L89.9336 4.70117ZM210.661 35.9512L207.126 39.4867L207.135 39.4964L207.145 39.506L210.661 35.9512ZM229.826 60.8535L225.492 63.3466L225.497 63.3549L225.502 63.3633L229.826 60.8535ZM242.033 90.3945L237.205 91.6944L237.21 91.7117L237.215 91.7289L242.033 90.3945ZM242.033 156.801L237.215 155.466L237.21 155.484L237.205 155.501L242.033 156.801ZM229.826 186.342L225.502 183.832L229.826 186.342ZM210.661 211.122L207.145 207.567L207.135 207.577L207.126 207.587L210.661 211.122ZM185.881 230.043L183.4 225.702L183.386 225.71L183.371 225.718L185.881 230.043ZM89.9336 242.25L88.6243 247.076L88.6337 247.078L89.9336 242.25ZM60.5146 230.043L63.0244 225.718L63.0099 225.71L62.9953 225.702L60.5146 230.043ZM35.6123 211.122L32.0768 214.658L32.0864 214.667L32.0961 214.677L35.6123 211.122ZM16.5693 186.342L12.2281 188.822L12.2364 188.837L12.2449 188.852L16.5693 186.342ZM4.3623 156.801L-0.465775 158.101L-0.461121 158.118L-0.456345 158.135L4.3623 156.801ZM19.1328 153.139L14.3158 154.479L14.3189 154.49L19.1328 153.139ZM47.0869 200.746L43.5734 204.304L43.5955 204.325L43.6179 204.347L47.0869 200.746ZM94.6943 227.724L96.0171 222.902L96.0026 222.898L95.988 222.894L94.6943 227.724ZM151.457 227.724L150.174 222.891L150.149 222.898L150.123 222.905L151.457 227.724ZM177.214 217.226L174.752 212.874L174.743 212.879L174.733 212.884L177.214 217.226ZM199.187 200.746L202.678 204.326L202.678 204.325L199.187 200.746ZM216.276 179.018L211.993 176.439L211.983 176.455L211.973 176.471L216.276 179.018ZM227.385 153.017L222.568 151.676L227.385 153.017ZM227.385 94.1787L222.568 95.5191L227.385 94.1787ZM216.398 68.1777L212.084 70.7052L212.09 70.7148L212.096 70.7243L216.398 68.1777ZM199.431 46.4492L195.917 50.0066L195.928 50.0177L195.94 50.0287L199.431 46.4492ZM177.458 29.8477L174.977 34.1889L174.987 34.1943L174.996 34.1997L177.458 29.8477ZM151.701 19.3496L150.378 24.1715L150.398 24.1769L150.418 24.1822L151.701 19.3496ZM94.4502 19.3496L95.7439 24.1794L95.7585 24.1754L95.773 24.1715L94.4502 19.3496ZM46.9648 46.4492L50.4559 50.0287L50.4672 50.0177L50.4783 50.0066L46.9648 46.4492ZM29.9971 68.1777L34.3 70.7243L34.3056 70.7148L34.3112 70.7052L29.9971 68.1777ZM19.0107 94.1787L14.1938 92.8383L14.1883 92.8578L14.1831 92.8773L19.0107 94.1787ZM5.08984 123.598C5.08984 112.457 6.46227 101.827 9.19038 91.6944L-0.465775 89.0947C-3.43428 100.121 -4.91016 111.627 -4.91016 123.598H5.08984ZM9.18095 91.7289C12.0048 81.5316 15.9176 72.0719 20.9106 63.3342L12.2281 58.3728C6.80441 67.8643 2.57917 78.0986 -0.456345 89.0601L9.18095 91.7289ZM20.9035 63.3466C25.9768 54.5267 32.0571 46.5774 39.1478 39.4867L32.0768 32.4156C24.3563 40.1361 17.7413 48.7884 12.2352 58.3604L20.9035 63.3466ZM39.1285 39.506C46.3138 32.3988 54.2763 26.3097 63.0244 21.2327L58.0049 12.5837C48.5238 18.0861 39.8848 24.6924 32.0961 32.3964L39.1285 39.506ZM63.0244 21.2327C71.7504 16.1685 81.1515 12.2647 91.2429 9.52671L88.6243 -0.124371C77.7196 2.83428 67.5081 7.06846 58.0049 12.5837L63.0244 21.2327ZM91.2335 9.52925C101.366 6.80114 111.996 5.42871 123.137 5.42871V-4.57129C111.166 -4.57129 99.6596 -3.09541 88.6337 -0.126907L91.2335 9.52925ZM123.137 5.42871C134.278 5.42871 144.907 6.80114 155.04 9.52925L157.64 -0.126907C146.614 -3.09541 135.108 -4.57129 123.137 -4.57129V5.42871ZM155.04 9.52925C165.213 12.268 174.651 16.1718 183.371 21.2327L188.391 12.5837C178.882 7.0652 168.626 2.83092 157.64 -0.126907L155.04 9.52925ZM183.371 21.2327C192.113 26.3063 200.028 32.3893 207.126 39.4867L214.197 32.4156C206.483 24.7018 197.877 18.0895 188.391 12.5837L183.371 21.2327ZM207.145 39.506C214.311 46.5936 220.424 54.5367 225.492 63.3466L234.16 58.3604C228.648 48.7784 221.986 40.1199 214.177 32.3964L207.145 39.506ZM225.502 63.3633C230.563 72.0836 234.466 81.5218 237.205 91.6944L246.861 89.0947C243.903 78.1084 239.669 67.8526 234.151 58.3438L225.502 63.3633ZM237.215 91.7289C240.018 101.851 241.428 112.469 241.428 123.598H251.428C251.428 111.615 249.908 100.096 246.852 89.0601L237.215 91.7289ZM241.428 123.598C241.428 134.726 240.018 145.344 237.215 155.466L246.852 158.135C249.908 147.099 251.428 135.581 251.428 123.598H241.428ZM237.205 155.501C234.466 165.674 230.563 175.112 225.502 183.832L234.151 188.852C239.669 179.343 243.903 169.087 246.861 158.101L237.205 155.501ZM225.502 183.832C220.434 192.564 214.317 200.473 207.145 207.567L214.177 214.677C221.979 206.96 228.639 198.348 234.151 188.852L225.502 183.832ZM207.126 207.587C200.035 214.677 192.13 220.713 183.4 225.702L188.362 234.384C197.861 228.956 206.476 222.378 214.197 214.658L207.126 207.587ZM183.371 225.718C174.651 230.779 165.213 234.683 155.04 237.422L157.64 247.078C168.626 244.12 178.882 239.886 188.391 234.367L183.371 225.718ZM155.04 237.422C144.907 240.15 134.278 241.522 123.137 241.522V251.522C135.108 251.522 146.614 250.047 157.64 247.078L155.04 237.422ZM123.137 241.522C111.996 241.522 101.366 240.15 91.2335 237.422L88.6337 247.078C99.6596 250.047 111.166 251.522 123.137 251.522V241.522ZM91.2429 237.424C81.1515 234.686 71.7504 230.783 63.0244 225.718L58.0049 234.367C67.5081 239.883 77.7196 244.117 88.6243 247.076L91.2429 237.424ZM62.9953 225.702C54.2599 220.71 46.307 214.668 39.1285 207.567L32.0961 214.677C39.8916 222.388 48.5403 228.959 58.034 234.384L62.9953 225.702ZM39.1478 207.587C32.0505 200.489 25.9675 192.574 20.8938 183.832L12.2449 188.852C17.7506 198.338 24.3629 206.944 32.0768 214.658L39.1478 207.587ZM20.9106 183.861C15.9176 175.123 12.0048 165.664 9.18095 155.466L-0.456345 158.135C2.57917 169.097 6.80441 179.331 12.2281 188.822L20.9106 183.861ZM9.19038 155.501C6.46227 145.368 5.08984 134.739 5.08984 123.598H-4.91016C-4.91016 135.569 -3.43428 147.075 -0.465775 158.101L9.19038 155.501ZM10.2266 123.598C10.2266 134.357 11.5827 144.657 14.3158 154.479L23.9498 151.798C21.4746 142.903 20.2266 133.509 20.2266 123.598H10.2266ZM14.3189 154.49C17.036 164.17 20.8659 173.2 25.8163 181.564L34.422 176.471C29.9323 168.885 26.438 160.662 23.9468 151.787L14.3189 154.49ZM25.8163 181.564C30.7549 189.909 36.6761 197.491 43.5734 204.304L50.6004 197.189C44.3141 190.98 38.9235 184.077 34.422 176.471L25.8163 181.564ZM43.6179 204.347C50.586 211.06 58.2417 216.803 66.5789 221.567L71.5403 212.884C63.927 208.534 56.9342 203.29 50.556 197.145L43.6179 204.347ZM66.5789 221.567C74.9373 226.343 83.8824 230.004 93.4007 232.553L95.988 222.894C87.2771 220.561 79.1324 217.223 71.5403 212.884L66.5789 221.567ZM93.3715 232.545C103.009 235.189 112.935 236.508 123.137 236.508V226.508C113.807 226.508 104.772 225.303 96.0171 222.902L93.3715 232.545ZM123.137 236.508C133.338 236.508 143.228 235.189 152.791 232.542L150.123 222.905C141.457 225.303 132.466 226.508 123.137 226.508V236.508ZM152.74 232.556C162.34 230.008 171.33 226.347 179.695 221.567L174.733 212.884C167.147 217.219 158.966 220.557 150.174 222.891L152.74 232.556ZM179.676 221.578C188.105 216.809 195.776 211.057 202.678 204.326L195.695 197.167C189.414 203.293 182.436 208.527 174.752 212.874L179.676 221.578ZM202.678 204.325C209.664 197.509 215.634 189.92 220.579 181.564L211.973 176.471C207.479 184.066 202.055 190.962 195.695 197.167L202.678 204.325ZM220.56 181.596C225.604 173.218 229.482 164.132 232.202 154.357L222.568 151.676C220.079 160.619 216.551 168.867 211.993 176.439L220.56 181.596ZM232.202 154.357C234.934 144.538 236.291 134.279 236.291 123.598H226.291C226.291 133.424 225.044 142.778 222.568 151.676L232.202 154.357ZM236.291 123.598C236.291 112.916 234.934 102.657 232.202 92.8383L222.568 95.5191C225.044 104.418 226.291 113.772 226.291 123.598H236.291ZM232.202 92.8383C229.486 83.0771 225.655 74.002 220.701 65.6311L212.096 70.7243C216.581 78.304 220.076 86.5629 222.568 95.5191L232.202 92.8383ZM220.713 65.6503C215.77 57.2132 209.838 49.6155 202.922 42.8698L195.94 50.0287C202.207 56.141 207.587 63.029 212.084 70.7052L220.713 65.6503ZM202.944 42.8918C196.039 36.0716 188.361 30.2704 179.92 25.4957L174.996 34.1997C182.668 38.5395 189.639 43.806 195.917 50.0066L202.944 42.8918ZM179.939 25.5064C171.574 20.7266 162.584 17.0656 152.984 14.517L150.418 24.1822C159.21 26.5164 167.392 29.8542 174.977 34.1889L179.939 25.5064ZM153.024 14.5278C143.383 11.8829 133.416 10.5654 123.137 10.5654V20.5654C132.551 20.5654 141.627 21.7707 150.378 24.1715L153.024 14.5278ZM123.137 10.5654C112.78 10.5654 102.772 11.882 93.1274 14.5278L95.773 24.1715C104.521 21.7717 113.637 20.5654 123.137 20.5654V10.5654ZM93.1565 14.5199C83.6383 17.0694 74.6931 20.7302 66.3347 25.5064L71.2961 34.1889C78.8883 29.8505 87.0329 26.5126 95.7439 24.1794L93.1565 14.5199ZM66.3347 25.5064C57.9794 30.2809 50.3492 36.0791 43.4513 42.8918L50.4783 50.0066C56.764 43.7985 63.701 38.529 71.2961 34.1889L66.3347 25.5064ZM43.4738 42.8698C36.5573 49.6155 30.6258 57.2132 25.6829 65.6503L34.3112 70.7052C38.8084 63.029 44.1888 56.141 50.4559 50.0287L43.4738 42.8698ZM25.6942 65.6311C20.74 74.002 16.9099 83.0771 14.1938 92.8383L23.8277 95.5191C26.3199 86.5629 29.814 78.304 34.3 70.7243L25.6942 65.6311ZM14.1831 92.8773C11.5395 102.684 10.2266 112.93 10.2266 123.598H20.2266C20.2266 113.758 21.4364 104.391 23.8384 95.4801L14.1831 92.8773Z" fill="#7161EF"/>
</svg>
