<svg width="127" height="198" viewBox="0 0 127 198" fill="none" xmlns="http://www.w3.org/2000/svg">
<mask id="path-1-outside-1_81_2729" maskUnits="userSpaceOnUse" x="-2" y="-2" width="202" height="202" fill="black">
<rect fill="white" x="-2" y="-2" width="202" height="202"/>
<path d="M0.671875 99.0781C0.671875 89.8333 1.8112 80.9792 4.08984 72.5156C6.43359 64.0521 9.6888 56.1745 13.8555 48.8828C18.0872 41.526 23.1654 34.8854 29.0898 28.9609C35.0794 23.0365 41.7201 17.9583 49.0117 13.7266C56.3034 9.49479 64.1484 6.23958 72.5469 3.96094C81.0104 1.68229 89.8646 0.542969 99.1094 0.542969C108.354 0.542969 117.208 1.68229 125.672 3.96094C134.135 6.23958 142.013 9.49479 149.305 13.7266C156.596 17.9583 163.204 23.0365 169.129 28.9609C175.118 34.8854 180.229 41.526 184.461 48.8828C188.693 56.1745 191.948 64.0521 194.227 72.5156C196.57 80.9792 197.742 89.8333 197.742 99.0781C197.742 108.323 196.57 117.177 194.227 125.641C191.948 134.104 188.693 141.982 184.461 149.273C180.229 156.565 175.118 163.173 169.129 169.098C163.204 175.022 156.596 180.068 149.305 184.234C142.013 188.466 134.135 191.721 125.672 194C117.208 196.279 108.354 197.418 99.1094 197.418C89.8646 197.418 81.0104 196.279 72.5469 194C64.1484 191.721 56.3034 188.466 49.0117 184.234C41.7201 180.068 35.0794 175.022 29.0898 169.098C23.1654 163.173 18.0872 156.565 13.8555 149.273C9.6888 141.982 6.43359 134.104 4.08984 125.641C1.8112 117.177 0.671875 108.323 0.671875 99.0781ZM12.7812 99.0781C12.7812 107.346 13.8229 115.224 15.9062 122.711C17.9896 130.133 20.9193 137.034 24.6953 143.414C28.4714 149.794 32.9961 155.589 38.2695 160.797C43.6081 165.94 49.4674 170.335 55.8477 173.98C62.2279 177.626 69.0638 180.426 76.3555 182.379C83.7122 184.397 91.2969 185.406 99.1094 185.406C106.922 185.406 114.474 184.397 121.766 182.379C129.122 180.426 135.991 177.626 142.371 173.98C148.816 170.335 154.676 165.94 159.949 160.797C165.288 155.589 169.845 149.794 173.621 143.414C177.462 137.034 180.424 130.1 182.508 122.613C184.591 115.126 185.633 107.281 185.633 99.0781C185.633 90.875 184.591 83.0299 182.508 75.543C180.424 68.056 177.495 61.1224 173.719 54.7422C169.943 48.2969 165.418 42.5026 160.145 37.3594C154.871 32.151 149.012 27.724 142.566 24.0781C136.186 20.4323 129.318 17.6328 121.961 15.6797C114.604 13.6615 106.987 12.6523 99.1094 12.6523C91.1667 12.6523 83.5169 13.6615 76.1602 15.6797C68.8685 17.6328 62.0326 20.4323 55.6523 24.0781C49.2721 27.724 43.4453 32.151 38.1719 37.3594C32.8984 42.5026 28.3737 48.2969 24.5977 54.7422C20.8216 61.1224 17.8919 68.056 15.8086 75.543C13.7904 83.0299 12.7812 90.875 12.7812 99.0781Z"/>
</mask>
<path d="M0.671875 99.0781C0.671875 89.8333 1.8112 80.9792 4.08984 72.5156C6.43359 64.0521 9.6888 56.1745 13.8555 48.8828C18.0872 41.526 23.1654 34.8854 29.0898 28.9609C35.0794 23.0365 41.7201 17.9583 49.0117 13.7266C56.3034 9.49479 64.1484 6.23958 72.5469 3.96094C81.0104 1.68229 89.8646 0.542969 99.1094 0.542969C108.354 0.542969 117.208 1.68229 125.672 3.96094C134.135 6.23958 142.013 9.49479 149.305 13.7266C156.596 17.9583 163.204 23.0365 169.129 28.9609C175.118 34.8854 180.229 41.526 184.461 48.8828C188.693 56.1745 191.948 64.0521 194.227 72.5156C196.57 80.9792 197.742 89.8333 197.742 99.0781C197.742 108.323 196.57 117.177 194.227 125.641C191.948 134.104 188.693 141.982 184.461 149.273C180.229 156.565 175.118 163.173 169.129 169.098C163.204 175.022 156.596 180.068 149.305 184.234C142.013 188.466 134.135 191.721 125.672 194C117.208 196.279 108.354 197.418 99.1094 197.418C89.8646 197.418 81.0104 196.279 72.5469 194C64.1484 191.721 56.3034 188.466 49.0117 184.234C41.7201 180.068 35.0794 175.022 29.0898 169.098C23.1654 163.173 18.0872 156.565 13.8555 149.273C9.6888 141.982 6.43359 134.104 4.08984 125.641C1.8112 117.177 0.671875 108.323 0.671875 99.0781ZM12.7812 99.0781C12.7812 107.346 13.8229 115.224 15.9062 122.711C17.9896 130.133 20.9193 137.034 24.6953 143.414C28.4714 149.794 32.9961 155.589 38.2695 160.797C43.6081 165.94 49.4674 170.335 55.8477 173.98C62.2279 177.626 69.0638 180.426 76.3555 182.379C83.7122 184.397 91.2969 185.406 99.1094 185.406C106.922 185.406 114.474 184.397 121.766 182.379C129.122 180.426 135.991 177.626 142.371 173.98C148.816 170.335 154.676 165.94 159.949 160.797C165.288 155.589 169.845 149.794 173.621 143.414C177.462 137.034 180.424 130.1 182.508 122.613C184.591 115.126 185.633 107.281 185.633 99.0781C185.633 90.875 184.591 83.0299 182.508 75.543C180.424 68.056 177.495 61.1224 173.719 54.7422C169.943 48.2969 165.418 42.5026 160.145 37.3594C154.871 32.151 149.012 27.724 142.566 24.0781C136.186 20.4323 129.318 17.6328 121.961 15.6797C114.604 13.6615 106.987 12.6523 99.1094 12.6523C91.1667 12.6523 83.5169 13.6615 76.1602 15.6797C68.8685 17.6328 62.0326 20.4323 55.6523 24.0781C49.2721 27.724 43.4453 32.151 38.1719 37.3594C32.8984 42.5026 28.3737 48.2969 24.5977 54.7422C20.8216 61.1224 17.8919 68.056 15.8086 75.543C13.7904 83.0299 12.7812 90.875 12.7812 99.0781Z" fill="#CF1259"/>
<path d="M4.08984 72.5156L2.16238 71.9819L2.16047 71.9888L2.15861 71.9957L4.08984 72.5156ZM13.8555 48.8828L12.1218 47.8856L12.119 47.8905L13.8555 48.8828ZM29.0898 28.9609L27.6834 27.539L27.6756 27.5467L29.0898 28.9609ZM72.5469 3.96094L72.0269 2.0297L72.0232 2.03072L72.5469 3.96094ZM169.129 28.9609L167.715 30.3752L167.722 30.3829L169.129 28.9609ZM184.461 48.8828L182.727 49.8801L182.731 49.8867L184.461 48.8828ZM194.227 72.5156L192.295 73.0356L192.297 73.0425L192.299 73.0494L194.227 72.5156ZM194.227 125.641L192.299 125.107L192.297 125.114L192.295 125.121L194.227 125.641ZM184.461 149.273L182.731 148.27L184.461 149.273ZM169.129 169.098L167.722 167.676L167.715 167.683L169.129 169.098ZM149.305 184.234L148.312 182.498L148.301 182.505L149.305 184.234ZM72.5469 194L72.0232 195.93L72.0269 195.931L72.5469 194ZM49.0117 184.234L50.0156 182.505L50.004 182.498L49.0117 184.234ZM29.0898 169.098L27.6756 170.512L27.6834 170.52L29.0898 169.098ZM13.8555 149.273L12.1189 150.266L12.1257 150.277L13.8555 149.273ZM4.08984 125.641L2.15861 126.161L2.16047 126.167L2.16238 126.174L4.08984 125.641ZM15.9062 122.711L13.9795 123.247L13.9807 123.251L15.9062 122.711ZM38.2695 160.797L36.8641 162.22L36.873 162.229L36.8819 162.237L38.2695 160.797ZM55.8477 173.98L54.8554 175.717L55.8477 173.98ZM76.3555 182.379L76.8846 180.45L76.8729 180.447L76.3555 182.379ZM121.766 182.379L121.252 180.446L121.242 180.449L121.232 180.451L121.766 182.379ZM142.371 173.98L141.386 172.24L141.379 172.244L142.371 173.98ZM159.949 160.797L161.346 162.229L161.346 162.228L159.949 160.797ZM173.621 143.414L171.908 142.383L171.904 142.389L171.9 142.395L173.621 143.414ZM182.508 122.613L180.581 122.077L182.508 122.613ZM182.508 75.543L180.581 76.0791L182.508 75.543ZM173.719 54.7422L171.993 55.7532L171.998 55.7608L173.719 54.7422ZM160.145 37.3594L158.739 38.7824L158.748 38.7912L160.145 37.3594ZM142.566 24.0781L141.574 25.8146L141.582 25.8189L142.566 24.0781ZM121.961 15.6797L121.432 17.6084L121.44 17.6106L121.448 17.6127L121.961 15.6797ZM76.1602 15.6797L76.6776 17.6116L76.6893 17.6084L76.1602 15.6797ZM55.6523 24.0781L54.6601 22.3416L55.6523 24.0781ZM38.1719 37.3594L39.5683 38.7912L39.5773 38.7823L38.1719 37.3594ZM24.5977 54.7422L26.3188 55.7608L26.3233 55.7532L24.5977 54.7422ZM15.8086 75.543L13.8818 75.0068L13.8796 75.0146L13.8775 75.0224L15.8086 75.543ZM2.67188 99.0781C2.67188 89.9993 3.79051 81.3205 6.02108 73.0356L2.15861 71.9957C-0.168112 80.6378 -1.32812 89.6674 -1.32812 99.0781H2.67188ZM6.0173 73.0494C8.31872 64.7387 11.5114 57.016 15.592 49.8751L12.119 47.8905C7.86617 55.333 4.54846 63.3655 2.16238 71.9819L6.0173 73.0494ZM15.5891 49.88C19.7344 42.6737 24.7055 36.1737 30.5041 30.3752L27.6756 27.5467C21.6252 33.5972 16.4401 40.3784 12.1218 47.8856L15.5891 49.88ZM30.4963 30.3829C36.3652 24.5777 42.8705 19.6031 50.0156 15.4564L48.0078 11.9968C40.5696 16.3136 33.7936 21.4952 27.6834 27.539L30.4963 30.3829ZM50.0156 15.4564C57.1518 11.3148 64.8348 8.12566 73.0706 5.89116L72.0232 2.03072C63.4621 4.3535 55.4549 7.67478 48.0078 11.9968L50.0156 15.4564ZM73.0668 5.89217C81.3518 3.6616 90.0306 2.54297 99.1094 2.54297V-1.45703C89.6986 -1.45703 80.669 -0.29702 72.0269 2.02971L73.0668 5.89217ZM99.1094 2.54297C108.188 2.54297 116.867 3.6616 125.152 5.89217L126.192 2.02971C117.55 -0.29702 108.52 -1.45703 99.1094 -1.45703V2.54297ZM125.152 5.89217C133.453 8.12701 141.167 11.3161 148.301 15.4564L150.309 11.9968C142.859 7.67347 134.818 4.35216 126.192 2.02971L125.152 5.89217ZM148.301 15.4564C155.444 19.6017 161.914 24.574 167.715 30.3752L170.543 27.5467C164.495 21.499 157.749 16.315 150.309 11.9968L148.301 15.4564ZM167.722 30.3829C173.583 36.1802 178.584 42.6777 182.727 49.88L186.195 47.8856C181.874 40.3744 176.654 33.5907 170.535 27.539L167.722 30.3829ZM182.731 49.8867C186.871 57.0207 190.061 64.7347 192.295 73.0356L196.158 71.9957C193.835 63.3694 190.514 55.3283 186.191 47.8789L182.731 49.8867ZM192.299 73.0494C194.592 81.3302 195.742 90.0042 195.742 99.0781H199.742C199.742 89.6625 198.548 80.6282 196.154 71.9819L192.299 73.0494ZM195.742 99.0781C195.742 108.152 194.592 116.826 192.299 125.107L196.154 126.174C198.548 117.528 199.742 108.494 199.742 99.0781H195.742ZM192.295 125.121C190.061 133.422 186.871 141.136 182.731 148.27L186.191 150.277C190.514 142.828 193.835 134.787 196.158 126.161L192.295 125.121ZM182.731 148.27C178.588 155.408 173.586 161.876 167.722 167.676L170.535 170.52C176.651 164.471 181.87 157.722 186.191 150.277L182.731 148.27ZM167.715 167.683C161.916 173.482 155.45 178.419 148.312 182.498L150.297 185.971C157.743 181.716 164.493 176.562 170.543 170.512L167.715 167.683ZM148.301 182.505C141.167 186.645 133.453 189.834 125.152 192.069L126.192 195.931C134.818 193.609 142.859 190.287 150.309 185.964L148.301 182.505ZM125.152 192.069C116.867 194.299 108.188 195.418 99.1094 195.418V199.418C108.52 199.418 117.55 198.258 126.192 195.931L125.152 192.069ZM99.1094 195.418C90.0306 195.418 81.3518 194.299 73.0668 192.069L72.0269 195.931C80.669 198.258 89.6986 199.418 99.1094 199.418V195.418ZM73.0706 192.07C64.8348 189.835 57.1518 186.646 50.0156 182.505L48.0078 185.964C55.4549 190.286 63.4621 193.607 72.0232 195.93L73.0706 192.07ZM50.004 182.498C42.864 178.418 36.3625 173.478 30.4963 167.676L27.6834 170.52C33.7963 176.566 40.5761 181.718 48.0194 185.971L50.004 182.498ZM30.5041 167.683C24.7029 161.882 19.7306 155.412 15.5853 148.27L12.1257 150.277C16.4439 157.718 21.6279 164.464 27.6756 170.512L30.5041 167.683ZM15.592 148.281C11.5114 141.14 8.31872 133.418 6.0173 125.107L2.16238 126.174C4.54846 134.791 7.86617 142.823 12.119 150.266L15.592 148.281ZM6.02108 125.121C3.79051 116.836 2.67188 108.157 2.67188 99.0781H-1.32812C-1.32812 108.489 -0.168112 117.518 2.15861 126.161L6.02108 125.121ZM10.7812 99.0781C10.7812 107.516 11.8445 115.575 13.9795 123.247L17.833 122.175C15.8013 114.873 14.7812 107.177 14.7812 99.0781H10.7812ZM13.9807 123.251C16.1092 130.834 19.106 137.897 22.9742 144.433L26.4165 142.395C22.7325 136.171 19.87 129.431 17.8318 122.17L13.9807 123.251ZM22.9742 144.433C26.8376 150.961 31.4685 156.891 36.8641 162.22L39.6749 159.374C34.5237 154.286 30.1051 148.628 26.4165 142.395L22.9742 144.433ZM36.8819 162.237C42.3384 167.494 48.3304 171.988 54.8554 175.717L56.8399 172.244C50.6045 168.681 44.8777 164.386 39.6572 159.357L36.8819 162.237ZM54.8554 175.717C61.3888 179.45 68.3849 182.314 75.838 184.311L76.8729 180.447C69.7427 178.537 63.0669 175.802 56.8399 172.244L54.8554 175.717ZM75.8263 184.308C83.3596 186.374 91.1225 187.406 99.1094 187.406V183.406C91.4713 183.406 84.0648 182.42 76.8846 180.45L75.8263 184.308ZM99.1094 187.406C107.096 187.406 114.828 186.374 122.299 184.306L121.232 180.451C114.12 182.42 106.747 183.406 99.1094 183.406V187.406ZM122.279 184.312C129.797 182.316 136.827 179.452 143.363 175.717L141.379 172.244C135.154 175.801 128.448 178.536 121.252 180.446L122.279 184.312ZM143.356 175.721C149.95 171.991 155.948 167.493 161.346 162.229L158.553 159.365C153.403 164.387 147.683 168.678 141.386 172.24L143.356 175.721ZM161.346 162.228C166.809 156.898 171.476 150.965 175.342 144.433L171.9 142.395C168.214 148.623 163.766 154.279 158.553 159.365L161.346 162.228ZM175.335 144.446C179.273 137.904 182.305 130.803 184.435 123.149L180.581 122.077C178.544 129.398 175.652 136.164 171.908 142.383L175.335 144.446ZM184.435 123.149C186.569 115.478 187.633 107.452 187.633 99.0781H183.633C183.633 107.11 182.613 114.774 180.581 122.077L184.435 123.149ZM187.633 99.0781C187.633 90.7039 186.569 82.6778 184.435 75.0068L180.581 76.0791C182.613 83.3821 183.633 91.0461 183.633 99.0781H187.633ZM184.435 75.0068C182.306 67.3588 179.31 60.262 175.44 53.7235L171.998 55.7608C175.68 61.9828 178.542 68.7531 180.581 76.0791L184.435 75.0068ZM175.444 53.7312C171.579 47.1337 166.944 41.1975 161.541 35.9276L158.748 38.7912C163.892 43.8077 168.306 49.46 171.993 55.7532L175.444 53.7312ZM161.55 35.9364C156.151 30.6041 150.15 26.0702 143.551 22.3373L141.582 25.8189C147.873 29.3778 153.591 33.6979 158.739 38.7823L161.55 35.9364ZM143.559 22.3416C137.023 18.6068 129.992 15.7427 122.474 13.7467L121.448 17.6127C128.643 19.523 135.35 22.2578 141.574 25.8146L143.559 22.3416ZM122.49 13.7509C114.955 11.6839 107.16 10.6523 99.1094 10.6523V14.6523C106.814 14.6523 114.253 15.639 121.432 17.6084L122.49 13.7509ZM99.1094 10.6523C90.9953 10.6523 83.1672 11.6835 75.631 13.7509L76.6893 17.6084C83.8667 15.6394 91.3381 14.6523 99.1094 14.6523V10.6523ZM75.6427 13.7478C68.1896 15.7442 61.1935 18.6082 54.6601 22.3416L56.6446 25.8146C62.8716 22.2563 69.5474 19.5215 76.6776 17.6116L75.6427 13.7478ZM54.6601 22.3416C48.1278 26.0744 42.1623 30.6071 36.7665 35.9364L39.5773 38.7823C44.7283 33.6949 50.4165 29.3736 56.6446 25.8146L54.6601 22.3416ZM36.7754 35.9276C31.3721 41.1975 26.7372 47.1337 22.872 53.7312L26.3233 55.7532C30.0102 49.46 34.4247 43.8077 39.5683 38.7912L36.7754 35.9276ZM22.8765 53.7235C19.0068 60.262 16.0099 67.3588 13.8818 75.0068L17.7354 76.0791C19.7739 68.7531 22.6364 61.9828 26.3188 55.7608L22.8765 53.7235ZM13.8775 75.0224C11.811 82.6887 10.7812 90.7094 10.7812 99.0781H14.7812C14.7812 91.0406 15.7698 83.3712 17.7397 76.0635L13.8775 75.0224Z" fill="#FEFCFD" mask="url(#path-1-outside-1_81_2729)"/>
</svg>
