<svg width="89" height="90" viewBox="0 0 89 90" fill="none" xmlns="http://www.w3.org/2000/svg">
<mask id="path-1-outside-1_81_2735" maskUnits="userSpaceOnUse" x="-4" y="-5" width="97" height="100" fill="black">
<rect fill="white" x="-4" y="-5" width="97" height="100"/>
<path d="M12.3125 89.8828L0.691406 77.8711L76.7656 0.234375L88.3867 12.3438L12.3125 89.8828ZM77.0586 89.8828L0.984375 12.3438L12.6055 0.234375L88.6797 77.8711L77.0586 89.8828Z"/>
</mask>
<path d="M12.3125 89.8828L0.691406 77.8711L76.7656 0.234375L88.3867 12.3438L12.3125 89.8828ZM77.0586 89.8828L0.984375 12.3438L12.6055 0.234375L88.6797 77.8711L77.0586 89.8828Z" fill="#7161EF"/>
<path d="M12.3125 89.8828L10.1564 91.9688L12.2975 94.1818L14.454 91.9838L12.3125 89.8828ZM0.691406 77.8711L-1.45137 75.7714L-3.49571 77.8578L-1.46468 79.9571L0.691406 77.8711ZM76.7656 0.234375L78.9301 -1.84286L76.7881 -4.07494L74.6228 -1.86527L76.7656 0.234375ZM88.3867 12.3438L90.5282 14.4447L92.5668 12.3668L90.5512 10.2665L88.3867 12.3438ZM77.0586 89.8828L74.9171 91.9838L77.0736 94.1818L79.2147 91.9688L77.0586 89.8828ZM0.984375 12.3438L-1.18014 10.2665L-3.19575 12.3668L-1.15708 14.4447L0.984375 12.3438ZM12.6055 0.234375L14.7482 -1.86527L12.583 -4.07494L10.441 -1.84286L12.6055 0.234375ZM88.6797 77.8711L90.8358 79.9571L92.8668 77.8578L90.8225 75.7714L88.6797 77.8711ZM14.4686 87.7968L2.8475 75.7851L-1.46468 79.9571L10.1564 91.9688L14.4686 87.7968ZM2.83418 79.9707L78.9084 2.33402L74.6228 -1.86527L-1.45137 75.7714L2.83418 79.9707ZM74.6011 2.31161L86.2222 14.421L90.5512 10.2665L78.9301 -1.84286L74.6011 2.31161ZM86.2453 10.2428L10.171 87.7818L14.454 91.9838L90.5282 14.4447L86.2453 10.2428ZM79.2 87.7818L3.12583 10.2428L-1.15708 14.4447L74.9171 91.9838L79.2 87.7818ZM3.14889 14.421L14.77 2.31161L10.441 -1.84286L-1.18014 10.2665L3.14889 14.421ZM10.4627 2.33402L86.5369 79.9707L90.8225 75.7714L14.7482 -1.86527L10.4627 2.33402ZM86.5236 75.7851L74.9025 87.7968L79.2147 91.9688L90.8358 79.9571L86.5236 75.7851Z" fill="white" mask="url(#path-1-outside-1_81_2735)"/>
</svg>
