<svg width="133" height="135" viewBox="0 0 133 135" fill="none" xmlns="http://www.w3.org/2000/svg">
<mask id="path-1-outside-1_81_2732" maskUnits="userSpaceOnUse" x="-5" y="-4" width="142" height="144" fill="black">
<rect fill="white" x="-5" y="-4" width="142" height="144"/>
<path d="M17.4688 134.824L0.0371094 116.807L114.148 0.351562L131.58 18.5156L17.4688 134.824ZM114.588 134.824L0.476562 18.5156L17.9082 0.351562L132.02 116.807L114.588 134.824Z"/>
</mask>
<path d="M17.4688 134.824L0.0371094 116.807L114.148 0.351562L131.58 18.5156L17.4688 134.824ZM114.588 134.824L0.476562 18.5156L17.9082 0.351562L132.02 116.807L114.588 134.824Z" fill="white"/>
<path d="M17.4688 134.824L15.3127 136.91L17.4537 139.123L19.6102 136.925L17.4688 134.824ZM0.0371094 116.807L-2.10566 114.707L-4.15 116.793L-2.11898 118.893L0.0371094 116.807ZM114.148 0.351562L116.313 -1.72567L114.171 -3.95776L112.006 -1.74809L114.148 0.351562ZM131.58 18.5156L133.722 20.6166L135.76 18.5387L133.745 16.4384L131.58 18.5156ZM114.588 134.824L112.446 136.925L114.603 139.123L116.744 136.91L114.588 134.824ZM0.476562 18.5156L-1.68795 16.4384L-3.70356 18.5387L-1.66489 20.6166L0.476562 18.5156ZM17.9082 0.351562L20.051 -1.74809L17.8858 -3.95776L15.7437 -1.72567L17.9082 0.351562ZM132.02 116.807L134.176 118.893L136.207 116.793L134.162 114.707L132.02 116.807ZM19.6248 132.738L2.1932 114.721L-2.11898 118.893L15.3127 136.91L19.6248 132.738ZM2.17988 118.906L116.291 2.45121L112.006 -1.74809L-2.10566 114.707L2.17988 118.906ZM111.984 2.42879L129.416 20.5928L133.745 16.4384L116.313 -1.72567L111.984 2.42879ZM129.439 16.4146L15.3273 132.723L19.6102 136.925L133.722 20.6166L129.439 16.4146ZM116.729 132.723L2.61801 16.4146L-1.66489 20.6166L112.446 136.925L116.729 132.723ZM2.64107 20.5928L20.0727 2.42879L15.7437 -1.72567L-1.68795 16.4384L2.64107 20.5928ZM15.7654 2.45121L129.877 118.906L134.162 114.707L20.051 -1.74809L15.7654 2.45121ZM129.863 114.721L112.432 132.738L116.744 136.91L134.176 118.893L129.863 114.721Z" fill="url(#paint0_linear_81_2732)" mask="url(#path-1-outside-1_81_2732)"/>
<defs>
<linearGradient id="paint0_linear_81_2732" x1="35" y1="122" x2="71.5" y2="14" gradientUnits="userSpaceOnUse">
<stop stop-color="#CF1259"/>
<stop offset="1" stop-color="#957FEF"/>
</linearGradient>
</defs>
</svg>
